<svg version="1" xmlns="http://www.w3.org/2000/svg" width="1365.333" height="1365.333" viewBox="0 0 1024.000000 1024.000000"><path d="M629.7 194.7c-.2.5-.3 9.8-.3 20.8l.1 20 3.3.3 3.2.3v-27.6l12.9 13c7 7.1 13.7 13.8 14.8 14.8 2 1.7 2 1.7 2-19.8l-.1-21.5H659V222.7l-12.2-12.6c-13.4-13.7-16.5-16.5-17.1-15.4zM709 215v21H715.7l-.1-11.5c-.1-6.3.1-11.5.4-11.5.3.1 3.3 4.1 6.8 9 3.5 5 6.6 9 7 9 .4-.1 3.6-4.3 7.2-9.5l6.5-9.4.3 11.9.3 12h2.9c1.7 0 3-.3 3.1-.8.5-4.2.3-40.5-.3-40.8-.4-.2-5 5.7-10.3 13.1l-9.7 13.6-4.2-5.8c-2.3-3.2-6.6-9.3-9.6-13.5-3-4.3-5.8-7.8-6.2-7.8-.5 0-.8 9.4-.8 21zM676.2 215.2l.3 20.3h3c2.8 0 3-.3 3.1-4 .4-11.1-.1-10.1 4.8-10.1 9.2-.1 14.6-5.1 14.6-13.4 0-9.1-5.4-13-18.1-13h-8l.3 20.2zm16.6-12.5c5.7 4.8 2.2 12.3-5.8 12.3-2.5 0-4-.5-4.1-1.3-.1-1.4-.1-12.1 0-12.5.4-1 8.3.1 9.9 1.5zM363.5 205.1c.4 1.1 4.4 10.9 9 21.7l8.2 19.5 1.6-3.4c.9-1.9 2.8-6.3 4.2-9.9 1.5-3.6 3.3-7.9 4-9.5 1.6-3.4 6.3-14.9 7.6-18.3.8-2 .6-2.2-2.5-2.2-3.8 0-3.8.1-10.5 18l-3.9 10.5-1.9-4.5c-1.1-2.5-3.7-8.9-5.8-14.3-3.8-9.6-3.9-9.7-7.2-9.7-3 0-3.4.2-2.8 2.1zM438.3 220c-5.9 1.3-9.3 6-9.3 12.9 0 6.2 6.2 12.1 12 11.6.8-.1 2.4-.3 3.6-.3 1.1-.1 2.9-.8 3.9-1.6 1.7-1.2 1.7-1.6.6-3-.8-.9-2.1-1.4-3.2-1.1-4.2 1.4-6 1.3-8.1-.4-2.2-1.8-2.1-1.8 5.8-4.5 10.6-3.5 10.5-3.5 8.9-7.3-2.2-5.3-7.7-7.7-14.2-6.3zm6.8 5.9l2.3 1.8-5.8 2.2c-7.3 2.7-7.8 2.7-6.5-.6 1.9-5.2 6.1-6.6 10-3.4zM400.5 221.1c-.3.3-.4 4.8-.3 10 .2 8.3.5 9.7 2.5 11.6 2.7 2.8 6.8 2.9 11.1.3 2.6-1.6 3.2-1.7 3.2-.5 0 .9 1 1.5 2.5 1.5h2.6l-.3-11.8-.3-11.7H419c-2.4 0-2.5.3-2.5 6.6 0 9.8-3.4 14.6-8.5 11.9-1.8-.9-2-2-2-9.8 0-8.8 0-8.8-2.6-8.8-1.4 0-2.7.3-2.9.7z"/><path d="M668.8 224.7c-.3.4-.4 5.4-.4 11 .1 5.7 0 10.3 0 10.3-.1 0-1.5-.7-3-1.5-3.6-1.9-6.5-1.9-10.9-.1-6.4 2.7-8.7 10-5.5 17.2 3.2 7.3 9.1 8.8 18.4 4.9 1.4-.6 1.7-.5 1.2.4-.6.9.1 1.2 2.5.9l3.4-.3v-43l-2.7-.3c-1.4-.2-2.8 0-3 .5zm-2.4 26.3c3.8 3.6 2.4 9.3-2.7 11.5-6.5 2.7-12.1-4.2-8.6-10.6 2.1-4.1 7.5-4.5 11.3-.9zM573.9 228.2c0 1.3-.1 10.6-.1 20.8l-.1 18.5 3.1.3c3.7.4 3.5 1.6 3.3-14.8l-.2-12.5 14.3 14.2c7.9 7.9 14.7 14.3 15.1 14.3.4 0 .7-9.5.7-21.1v-21l-3.2.3-3.3.3V255.2l-14.1-14.6c-7.8-8-14.5-14.6-14.8-14.6-.3 0-.6 1-.7 2.2zM343 255.5V276H370.7l-.1-2.8-.1-2.7-10.7-.3-10.8-.3v-11.7l9.3.1 9.2.1v-5.8l-9.2.1H349v-11.6l10.2-.3c10.2-.3 10.2-.3 10.2-2.8v-2.5l-13.2-.3-13.2-.3v20.6zM455.1 243.2c-1.1 2.8 1 4.9 3.9 4.1 2.4-.6 2.7-4.8.4-5.7-2.6-1-3.4-.7-4.3 1.6zM469.3 242.7c-.3 1-.8 2.1-1 2.6-.7 1.2 4.1 2.6 5.5 1.5 1.7-1.4 1.5-4.5-.4-5.2-2.5-1-3.4-.7-4.1 1.1zM624.1 244.8c-9.3 5-8.8 18.9.7 22.9s19.6-3 18.7-12.8c-.6-5.1-3-8.7-7.3-10.4-4.6-2-8-1.9-12.1.3zm11.2 6c2.4 2.1 2.3 8.4-.3 10.7-4.4 4-11.4.6-11.2-5.5.2-6.8 6.3-9.6 11.5-5.2zM688.1 244.7c-4.9 2.6-7.4 6.4-7.4 11.3 0 7.5 4.1 11.9 11.6 12.5 4.4.3 9.7-1.1 9.7-2.7 0-.5-.5-1.8-1-2.9-.9-1.5-1.5-1.7-3-.9-2.5 1.3-5.6 1.3-8.3-.1-1.9-1.1-1.1-1.5 6.9-4.4 8-2.9 8.9-3.5 8.6-5.6-.8-6.6-10.5-10.7-17.1-7.2zm9.7 5.6c1 .8-.1 1.6-4.4 3.4-6.9 2.8-6.4 2.7-6.4.4 0-2.8 4.8-6.3 7.4-5.5 1.2.4 2.7 1.1 3.4 1.7zM802.6 249.7c-1.7.5-1.8 1.2-1.3 7.7.9 12 4.5 18.2 12.6 21.8 5 2.3 9.5 1.9 13.5-1.3 5.4-4.3 6.9-10.4 4-16.5-4-8.4-16.7-8.9-21-.8-1.6 2.9-2 3.1-2.6 1.7-.3-1-.7-4.4-.7-7.6-.1-5.8-.3-6.1-4.5-5zm22.3 13.9c2.7 3.5 2.6 5.9-.4 8.9s-5.4 3.1-8.9.4c-3.3-2.6-3.4-6.2-.1-9.4 3.2-3.3 6.8-3.2 9.4.1zM246.5 271.2v20.3l9.4.3c7.8.2 10-.1 13.6-1.8 12.6-6.1 14.8-24.4 4.1-33.8-4.5-3.9-9.1-5.2-19.1-5.2h-8.1l.1 20.2zm19.4-12.4c5.4 2.7 7.6 6.5 7.6 12.7 0 8.9-6.1 14.5-15.7 14.5H253v-29h4.8c2.6 0 6.2.8 8.1 1.8zM389.3 251.8c-1.2.2-2.7 1-3.3 1.8-1.6 1.8-3 1.8-3 0 0-.9-1-1.3-2.5-1.2l-2.5.1v23.6l2.7-.3c2.6-.3 2.7-.5 2.9-7 .3-7.2 2.1-11.2 5.5-12.1 3.7-1 4.9 1.8 4.9 10.9v8.4h2.8c2.7 0 2.8-.2 2.8-5.3 0-8.4 1-11.4 4.3-13.1 4.7-2.5 5.9-.5 5.8 9.6 0 8.3 0 8.3 2.6 8.6 1.7.2 2.7-.2 2.8-1 .5-6.2.3-16.8-.4-19-1.4-4.5-8.9-5.7-12.9-2.1-1.6 1.5-1.9 1.5-3.6 0-1.9-1.7-5.5-2.5-8.9-1.9zM429.3 252.5c-7.4 3.1-9.9 13.3-4.8 19.3 3.5 4.2 6.9 5.1 15.1 4.3 1.5-.1 7.4-5.9 7.5-7.4.6-6.1.4-8-.8-10.6-.8-1.6-2.6-3.7-3.9-4.6-3.1-2-9.4-2.5-13.1-1zm8 4.6c5.3 2.4 6 10.2 1.2 13.3-7.4 4.9-14.9-6.8-7.9-12.3 3.1-2.4 3.5-2.5 6.7-1zM455 264.6c0 9.6-.4 13.4-1.6 16.1-1.6 3.1-1.6 3.6-.1 5 1.3 1.4 1.9 1.4 3.2.3.9-.7 2.1-2.3 2.7-3.4 1.3-2.3 2.1-29.5 1-29.7-.4 0-1.7-.2-2.9-.5-2.3-.4-2.3-.3-2.3 12.2zM468.8 257.8c-.2 3.1-.1 8.5 0 11.9.3 5.9.5 6.3 2.8 6.3 1.3 0 2.5-.6 2.5-1.3.4-4 .3-21.7-.1-21.8-.3 0-1.5-.2-2.7-.5-2-.3-2.2.1-2.5 5.4zM291.8 269.2c-9 5.2-8.5 18.5 1 22.5 4.1 1.7 11.3 1 13.2-1.2 1.7-2-1-5.8-3-4.4-2.2 1.3-7.6 1.1-8.9-.4-.8-1.1.6-1.9 7.2-4.2 4.5-1.5 8.5-3.1 8.9-3.4.4-.3 0-2-.7-3.8-2.8-6.5-11.1-8.9-17.7-5.1zm10.2 4.3c2 1.3.9 2.4-4.5 4.4-3.1 1.2-5.8 2.1-6 2.1-1 0 1.7-5.4 3.3-6.6 1.6-1.3 5.1-1.2 7.2.1zM312 268.8c0 .4 2.5 5.2 5.5 10.7 3 5.4 5.5 10.2 5.5 10.6 0 .4.6 1.2 1.4 1.9 1.2.9 1.8.5 3.4-2.7 1-2.1 3.7-7.5 6-12 2.3-4.4 4.2-8.4 4.2-8.7 0-.3-1.5-.6-3.2-.6-3.1 0-3.5.4-6.3 7.1l-3 7.1-3.4-7.1c-3.2-6.7-3.5-7.1-6.7-7.1-1.9 0-3.4.3-3.4.8zM782.5 272.1c-4.6 4.1-6.5 7.8-6.5 12.9 0 3.4.6 4.8 3.1 7.1 4.2 4 8.9 3.9 15.4-.2 2.7-1.7 5.8-3.5 7-3.9 2.8-1 6.4.9 7.2 3.7.8 3.6-1.1 6.9-6.1 10.5-3.7 2.6-4.3 3.4-3.5 4.9 1.6 3 2.5 3 6.9 0 5.7-3.8 9-9.3 9-15 0-3.6-.6-4.9-3.4-7.7-4.8-4.8-9.2-4.7-18.1.5-8 4.7-11.4 4.2-11.5-1.5 0-2.3 4.1-7.2 7.4-9.1 1.5-.8 1.6-1.4.7-3.2-1.6-2.9-3.4-2.7-7.6 1zM614.3 276.5c-7.3 3.1-12.3 10.9-12.3 19 0 8.2 4 14.9 11.3 18.6 4 2.1 5.1 2.2 21 2l10.7-.1v-3c0-2.8-.3-3-3.6-3h-3.5l1.9-2.8c5.6-7.9 4.3-20.2-3-26.9-5.4-5-15.7-6.8-22.5-3.8zm19.2 9.8c2.9 3.3 3.5 4.9 3.5 8.5 0 15.6-18 21.8-26.3 9-3.1-4.8-3.5-9.4-1.1-14.3 4.8-10.1 16.6-11.7 23.9-3.2zM581 287.1c0 6-.2 10.9-.4 10.9s-1.6-.7-3.2-1.5c-5.4-2.8-13.8 0-16.3 5.3-1.6 3.3-1.3 8.9.5 12.7 2.7 5.7 10.4 7.7 16.6 4.4 1.6-.9 2.3-.9 2.6 0 .2.6 1.7 1.1 3.3 1.1h2.9v-43.7l-3-.1-3-.1v11zm-4.1 14.4c4.6 2.3 5.4 6.6 2 10.9-2.7 3.4-7.9 3.6-10.9.4-3.4-3.7-2.2-10 2.3-11.8 3.1-1.2 3.4-1.2 6.6.5zM370.8 280.2c-.2.7-.3 9.8-.3 20.3l.1 19 3.3.3c2.9.3 3.2.1 3.1-2-.1-1.3-.2-5.1-.1-8.6l.1-6.2h16v-6h-16v-12h18v-6h-11.9c-8.6 0-12 .3-12.3 1.2zM590.3 281.7c-1.7.6-1.6 3.8.1 5.2 1.7 1.5 4.3.5 4.9-1.9.8-3-1.7-4.7-5-3.3zM484.4 290.5c.1 3.4-.4 4.9-1.5 5.6-.9.4-1.9.5-2.3.2-.3-.3-.6.6-.6 2 0 2 .5 2.7 2 2.7 2.1 0 2.1-.1 2.2 13.3l.1 5.8 3.1-.3 3.1-.3v-18l3.3-.3c2.8-.3 3.3-.7 3-2.5-.2-1.2-1-2.3-1.8-2.3-.8-.1-2.2-.2-3.1-.3-1.1-.1-1.5-1.2-1.5-4.9.1-4.5 0-4.7-3-5-3-.3-3.1-.3-3 4.3zM690 292.1c-5.3 1.1-9 6.1-9 12.1 0 4.1.5 5.4 3.3 8.3 2.6 2.8 4.1 3.6 7.7 3.9 4.4.3 10-1.5 10-3.3 0-1.9-2.8-3.1-5.1-2.3-3 1.2-5.8.7-7.6-1.1-1.2-1.2-.1-1.8 7.6-4.6 5-1.8 9.1-3.6 9.1-3.9 0-.4-.9-2.1-2-3.9-3-5-7.5-6.6-14-5.2zm7.1 5.8c2.6 2.1 3 1.8-5 4.6-2.4.8-4.7 1.5-5.1 1.5-1.3 0 0-3.7 2.1-5.9 2.5-2.6 5-2.7 8-.2z"/><path d="M590.3 292.7c-1 .3-1.3 3.9-1.3 12.9 0 9.5-.4 13.2-1.6 15.6-1.4 2.6-1.4 3.2-.2 4.5 2 1.9 4.4.7 6.2-3.2 2.3-4.8 2.3-29 0-29.9-.9-.3-1.6-.6-1.7-.5-.1 0-.8.3-1.4.6zM652.6 292.9c-.3.4-.4 4.9-.4 10 0 8.5.2 9.6 2.4 11.7 2.8 2.9 6.8 3.1 11.2.4 2.6-1.6 3.2-1.7 3.2-.5 0 .9 1 1.5 2.5 1.5h2.5v-11.4c0-11.6-.5-13.2-3.8-12.2-1.4.5-1.7 1.8-1.8 7.1-.1 9.6-3.4 14.2-8.3 11.5-1.7-.9-2.1-2.2-2.3-9.8-.3-8.3-.4-8.7-2.6-8.8-1.2-.1-2.4.2-2.6.5zM711.9 293.4c-.1 1.5-.1 14.3 0 18.8.1 3.4.4 3.8 2.6 3.8 1.4 0 2.5-.3 2.6-.8 0-.4.2-3.5.3-6.9.2-6.2 2.2-10.3 5-10.3 1.8 0 3.3-1.4 4-3.8.6-1.8.4-2.2-1.4-2.2-1.2 0-3.4.9-4.8 2.1-2.6 2-2.7 2-3.2.2-.5-2-4.9-2.8-5.1-.9zM729.6 292.8c-.2.4 2 5.4 4.9 11.2l5.2 10.5-2.3 5.4c-3 6.8-3 7.3.3 6.9 2.4-.3 3.3-1.8 9.9-16.8 4-9.1 7.3-16.7 7.3-17.1.1-.3-1.1-.5-2.5-.5-2.3 0-3.1.9-6.2 7.9l-3.5 7.8-3.4-7.2c-1.8-4-3.6-7.5-3.8-7.7-.8-.8-5.5-1.1-5.9-.4zM759 305.1c-4.5 6.7-7 11.3-6.4 11.7.6.4 8.1 5.6 16.8 11.6 13.1 8.9 16 10.6 17.1 9.5.7-.8 4.3-5.9 8-11.3l6.8-9.9-2.3-1.9c-1.2-1-2.5-1.6-2.9-1.4-.4.3-3.2 4.1-6.2 8.5-2.9 4.4-5.8 8-6.2 8.1-.5 0-2.5-1.2-4.5-2.7-2-1.5-3.9-2.9-4.1-3-.3-.2 1.9-3.6 4.7-7.7 4.9-7 5-7.4 3.3-9-.9-.9-2.2-1.6-2.8-1.6-.5 0-3.1 3.1-5.7 7-2.5 3.8-4.9 7-5.3 7-1.2 0-8.3-5.2-8.3-6.1 0-.4 2.5-4.3 5.5-8.8l5.5-8-2.2-1.5c-1.2-.9-2.5-1.6-2.8-1.6-.3 0-3.9 5-8 11.1zM413.5 295.7c-1.1.3-3 1.4-4.2 2.5-2.1 2-2.1 2-2.8-.1-.4-1.4-1.4-2-3.1-1.9-2.4.2-2.4.3-2.4 12V320h6v-6.6c0-5.9.3-6.8 2.9-9.5 1.6-1.6 3.7-2.9 4.5-2.9 1.1 0 1.6-.9 1.6-3 0-1.7-.1-2.9-.2-2.9-.2.1-1.2.3-2.3.6zM427 296.3c-6.5 2.3-10 11.3-6.7 17.6 4.3 8.4 17.8 8.9 22.7.9 2.5-4.2 2.6-9.4 0-13.5-3.2-5.3-9.5-7.2-16-5zm7.9 5.2c4.9 2.5 5.6 7.8 1.5 11.8-3 3.1-5.7 3.1-9 0-4.5-4.2-2.1-11.5 4.4-13.2.2-.1 1.6.6 3.1 1.4zM462.7 296.1c-1.6.4-3.5 1.3-4.3 2-1.1.9-1.4.8-1.4-.5 0-1.2-.8-1.6-2.8-1.4l-2.9.2V320h2.9c2.7 0 2.8-.2 2.9-5.3.1-10.1 2-13.7 6.9-13.7 3.5 0 4 1.3 4 11.1v7.9h6v-10c0-9.4-.2-10.3-2.4-12.3-2.7-2.5-4.7-2.9-8.9-1.6zM507.3 297c-6.8 3-9.1 12-4.8 18.7 3 4.4 10.5 6.2 16.3 3.7 2.9-1.2 3.2-1.6 2.2-3.4-1.1-2.1-2.3-2.3-5.5-1.1-2.1.9-7.5-.5-7.5-1.9 0-.4 3.7-2 8.1-3.6 4.5-1.6 8.4-3.4 8.6-4.2.8-1.9-1.6-5.9-4.5-7.8-3.5-2.3-8.3-2.5-12.9-.4zm8.2 4c1.5.6 2.5 1.5 2.3 2.1-.3 1-9.1 4.9-11 4.9-1.7 0-.7-3.2 1.7-5.5 2.7-2.8 3.3-2.9 7-1.5zM540.5 297c-2.8 1.4-3.5 1.5-3.5.4 0-1-1-1.4-3-1.2l-3 .2V320h6v-7.1c0-6.5.2-7.3 3-10.1s3.2-2.9 5.3-1.5c2.5 1.6 2.4 1.2 2.6 11.2l.1 7.5h5.8l.1-8.3c0-4.5-.2-9.4-.5-11-1-4.9-7.1-6.7-12.9-3.7zM319.9 297.3c-.1 1.5-.1 39.7 0 41.4.1 1.6 4.8 1.7 5.3.3.2-.7 1.5-.6 3.8.3 8.6 3.5 17.1-2 17.2-11.1.1-10.8-8.1-15.3-19.3-10.7-1.5.6-1.7-.4-1.7-8.7 0-5.1 0-10-.1-10.8-.1-1.9-5.1-2.5-5.2-.7zm18.7 26.1c4.1 4.6.6 11.9-5.7 11.9-6.7 0-9.9-8-5.1-12.8 3.2-3.2 7.5-2.8 10.8.9zM238.5 300c-.3.5 7.4 21.5 14.7 40 .9 2.3 1.4 1.5 5.7-8.8 2.6-6.2 5-11.4 5.3-11.7.3-.3 2.4 4.4 4.8 10.5 2.4 6 4.6 11 4.9 11 .5 0 9-22.2 15.9-40.9.2-.7-2.3-.7-6-.2-.4.1-2.6 5.9-5 13.1-2.3 7.1-4.5 13-4.8 13-.3 0-2.9-6.1-5.8-13.5-4.8-12.1-5.6-13.4-7.5-13.1-1.2.3-2.5.5-2.9.5-.4.1.2 2.2 1.2 4.7 1.1 2.5 2 5.2 2 6 0 1.6-4.9 14.5-6 15.7-.4.4-2.2-3.6-4-9-5.5-16.2-6.4-18.1-9.4-18.1-1.5 0-2.8.4-3.1.8zM298 316.1c-5.3 1.1-9 6.1-9 12.2 0 4.2.5 5.4 3.4 8.3 1.9 1.9 4.3 3.5 5.5 3.5 6.2.4 8.5.1 10.7-1.5 1.8-1.4 1.8-1.6.2-3.2-1.4-1.5-2.2-1.6-4.3-.6-2.5 1.2-6.7.3-7.9-1.6-.5-.8 4.9-3 16.2-6.7 1-.4 1-1.1-.1-3.6-2.3-5.8-7.8-8.3-14.7-6.8zm7.1 5.8l2.3 1.8-5.8 2.2c-7.3 2.7-7.8 2.7-6.5-.6 1.9-5.2 6.1-6.6 10-3.4zM489.1 323.1c-.5 1.3-4.1 10-8.1 19.4-4 9.3-7.6 18-8.1 19.2-.8 2.1-.6 2.3 2.2 2.3 2.7 0 3.3-.6 5.4-5.3l2.3-5.3 7.2.1h7.3l2 5.3c1.8 4.8 2.2 5.2 5.3 5.2 1.9 0 3.4-.4 3.4-.9 0-.9-16.9-41.3-17.5-42-.3-.2-.9.7-1.4 2zm3.5 18.1c1 2.9 2.1 5.6 2.2 6 .2.4-2 .8-4.8.8s-5-.4-4.8-.8c.2-.4 1.2-3.1 2.2-6 1.1-2.9 2.3-5.2 2.6-5.2.3 0 1.5 2.3 2.6 5.2z"/><path d="M424.8 322.7c-.2.5-.3 9.8-.3 20.8l.1 20 3.3.3 3.2.3-.3-11.5c-.2-6.4-.1-11.6.2-11.6.3 0 3.5 4 7 9 3.5 4.9 6.7 9 7 9 .3-.1 3.4-4.3 7-9.4 3.6-5.2 6.7-9.2 7-9 .2.3.4 5.5.5 11.7v11.2h6v-20.3c0-11.2-.2-20.5-.6-20.7-.3-.2-4.8 5.6-10 13s-9.6 13.4-9.9 13.5c-.3 0-4.8-6.1-10-13.5-5.1-7.4-9.5-13.5-9.6-13.5-.2 0-.4.3-.6.7zM349.8 324.2c-.3 1.1-.3 36.5.1 39.1.1.4 6.3.6 13.9.5l13.7-.3V361c0-2.5-.1-2.5-10.7-2.8l-10.6-.3-.4-5c-.1-2.8.2-5.4.7-5.7.6-.4 4.8-.7 9.5-.7h8.4l.1-3v-3h-9c-10.1.1-10.4-.1-9.7-7.6l.4-3.9h20.5l-.2-2.8-.1-2.7-13.1-.3c-9.9-.2-13.2.1-13.5 1zM394.3 325.1c-10.7 5.3-13.9 21.3-6.3 32 4.5 6.2 15.3 9 23.8 6.2 4.3-1.5 5-2.9 3.2-6.4-1-1.8-1.2-1.8-3.6-.2-1.4.9-4.5 1.6-6.8 1.6-12.8 0-19.1-15.3-10.2-25 2.7-2.9 4.1-3.6 8.2-4 3.5-.4 6 0 8.1 1 2.9 1.6 3.1 1.5 4.2-.9 1.5-3.3 1.5-3.1-1.9-4.9-4.3-2.2-13.6-1.9-18.7.6zM518.1 325.8c-2.9 2.4-3.5 3.6-3.7 7.2-.3 6.1 1.5 8.2 10 12.3 7.5 3.6 9.3 5.8 8.1 9.5-.6 2.2-4.5 4.2-7.8 4.2-1.3 0-4-.9-6-1.9l-3.8-1.9-1.6 2.5c-1.9 2.9-1.3 3.5 5.8 5.7 11.3 3.4 19.9-1.4 19.9-11.3 0-5.7-2.5-8.5-11.2-12.4-6.8-3-8.6-5.6-6-8.7 2.1-2.6 6.7-3.2 11.1-1.4 1.9.8 3.5 1.3 3.6 1.2.1-.2.8-1.3 1.4-2.6 1.1-2 .9-2.3-1.6-3.4-1.5-.6-5.5-1.3-8.8-1.5-5.5-.4-6.3-.2-9.4 2.5zM593.1 330.4c-.9 1.1-1 2-.1 3.6 1.3 2.4 3.8 2.3 5.3-.1 2.3-3.7-2.5-6.8-5.2-3.5zM642 335c0 4.3-.3 5-2 5-1.5 0-2 .7-2 2.5s.5 2.5 2 2.5c1.9 0 2 .7 2 9.5v9.5h3c3.3 0 3.2.6 3.2-11.8V345h3.3c2.7 0 3.2-.4 3.1-2.3-.1-1.5-.8-2.2-2.3-2.3-1.3-.1-2.7-.2-3.3-.3-.5 0-1-2.4-1-5.1 0-4.9-.1-5-3-5s-3 .1-3 5zM762 358v22h2.9c2.8 0 3-.2 3.3-4.7.2-2.5.8-4.8 1.5-5 .7-.3 2.6 1.8 4.4 4.6 2.7 4.5 3.5 5.1 6.5 5.1 1.9 0 3.4-.3 3.4-.6s-2-3.5-4.5-7.1l-4.6-6.5 2.8-2.1c1.5-1.2 3.4-2.7 4.2-3.3 1.3-1 1.3-1.4.2-2.8-1.9-2.3-2.7-2.1-8.5 2.5l-5.1 4.1-.3-14.1-.3-14.1H762v22zM658 359.1v21l3.2-.3 3.2-.3-.1-11.2c0-6.2.3-11.1.8-10.8.4.3 3.3 4.1 6.4 8.5 3.1 4.4 6 8.2 6.5 8.5.5.3 3.9-3.9 7.7-9.2l6.8-9.8.3 12.2.3 12.3h5.9v-21.1c0-12.6-.4-20.8-.9-20.4-.5.3-5.1 6.4-10.2 13.6l-9.3 13-1.8-2.3c-.9-1.3-5.2-7.3-9.5-13.5s-8.1-11.2-8.5-11.3c-.5 0-.8 9.5-.8 21.1zM553.5 340.1c-1.7.5-4.4 2.2-6 3.9-2.5 2.7-2.9 3.8-2.8 8.2.2 6.2 2.6 9.8 7.8 11.6 4 1.3 9.3.8 11.9-1.2 1.3-.9 1.3-1.4.2-2.9-1.1-1.4-1.9-1.6-4-.7-7.1 2.7-13.2-6.3-8.1-12 2-2.2 7.4-2.7 9.3-.8.9.9 1.5.8 2.7-.8 2.5-3.3 2.1-3.8-4.1-5.2-2.1-.5-5.3-.5-6.9-.1zM584 339.8c-.8.3-2.7 1.4-4.2 2.4-2.8 1.9-2.8 1.9-2.8 0 0-1.4-.7-2-2.4-2-1.4 0-2.6.6-2.8 1.2-.2.6-.4 5.8-.3 11.6v10.5h3c2.9 0 3-.1 3-5.5.2-7.8 1.2-9.9 5.4-11.8 2.5-1.2 3.6-2.3 3.6-3.9 0-2.6-.6-3.2-2.5-2.5zM617.7 340c-1.6.5-3.5 1.4-4.3 2.1-1.1.9-1.4.8-1.4-.5 0-1-.9-1.6-2.5-1.6H607v35h6v-12.9l3.5 1.5c8.2 3.4 16-1.4 16.9-10.2 1-9.4-6.9-16.1-15.7-13.4zm7.5 6.9c3.1 3 3 7-.3 10.3-2.4 2.4-3.5 2.9-5.7 2.3-4-1-6.2-3.4-6.2-7 0-7.1 7.2-10.5 12.2-5.6zM592.7 340.9c-.2.5-.1 18.1.2 21.9.1.8 1.1 1.2 2.8 1l2.8-.3v-10c.1-5.5-.1-10.7-.3-11.6-.3-1.6-4.9-2.4-5.5-1zM237.5 362.7v20.8l3.2.3 3.2.3.3-11.6.3-11.7 6.4 9.1c3.5 5 6.7 9.1 7 9.1.3 0 3.6-4.4 7.4-9.7 5.2-7.5 6.7-9.1 6.8-7.2v12.2l.1 9.8 3.1-.3 3.2-.3.1-20.8c.1-11.4-.2-20.7-.5-20.7-.4 0-3.3 3.7-6.6 8.2-3.2 4.6-7.6 10.7-9.8 13.6l-3.9 5.3-3.3-4.8c-9.7-13.9-15.9-22.3-16.5-22.3-.3 0-.5 9.3-.5 20.7zM161.9 346v36.1c.1 1.7.6 2 3.3 1.7l3.1-.3-.2-8.1c-.2-6 .1-8.2 1.1-8.5.7-.2 5.1-.4 9.8-.4h8.5l.3 8.7.3 8.8h6.6v-41H188v8.4c0 5.8-.4 8.5-1.2 8.8-.7.2-5.1.3-9.8.3h-8.5l-.3-8.8-.3-8.7H165c-2.6 0-3 .4-3.1 3zM202.9 343.7c-.9 5.3-.9 5.3 4.7 5.3h5.4v35h2.9c1.6 0 3.1-.6 3.3-1.3.2-.6.3-8.5.3-17.5l-.1-16.2h5.3c5.2 0 5.3 0 5.3-3v-3h-13.5c-7.4 0-13.6.3-13.6.7zM289 363.5V384h27v-6H295.3l.2-16.3c0-8.9-.1-16.8-.3-17.5-.2-.6-1.7-1.2-3.3-1.2H289v20.5zM325.1 346.8c-.7.2-1.1 4.2-1.1 10.4 0 9.2.1 9.9 1.8 9.3.9-.5 3.1-1 4.9-1.3 6.8-.9 9.9 7.8 4.2 12-2.4 1.9-2.8 1.9-6.5.3-3.6-1.5-3.9-1.5-5.1.1-1.8 2.5-1.6 3.1 1.1 4.9 3.2 2.1 7.8 2.6 12.2 1.2 12.1-3.7 10-24-2.6-24.1-2.4-.1-4-.6-4.1-1.4-.5-4.8-.6-4.7 6.1-5.2 6.7-.5 6.9-.7 6.1-5.8-.1-.7-15-1.1-17-.4zM716 355.7c-6.4 2.1-9.3 6.1-9.3 13 0 9.1 8.3 14.4 17 10.8 1.8-.8 3.3-1 3.3-.4 0 .5 1.4.9 3 .9h3v-24h-2.4c-1.4 0-2.7.4-3.1.9-.3.6-1.9.4-4-.5-3.6-1.4-4.9-1.6-7.5-.7zm9.3 7.1c1 .9 1.7 2.9 1.7 5.2 0 5.8-5 9.1-10 6.5-5.2-2.7-5.1-10.6 0-13.2 2.8-1.4 5.6-.9 8.3 1.5zM753 355.7c-.8.3-2.5 1.4-3.6 2.5-2.1 1.9-2.1 1.9-2.7-.1-.3-1.5-1.3-2.1-3.1-2.1H741v24h6v-6.4c0-7.1 2-10.9 6.5-12 2-.5 2.5-1.3 2.5-3.6 0-3-.3-3.3-3-2.3zM795.4 356c-5 1.5-7.7 5.3-8.2 11.3-.4 4.6-.1 5.7 2.3 8.5 5.2 6.2 15 6.5 20.5.7 2.8-2.9 3.8-10.8 1.8-14.4-2.9-5.4-9.8-8-16.4-6.1zm7.2 5.3c3.2 1.1 4.9 6 3.5 9.6-1.7 4-5.4 5.5-9 3.6-4.9-2.5-5.6-8.2-1.6-12 2.6-2.3 3.3-2.5 7.1-1.2zM384.5 368.1c-5.8 2.2-7 3.2-10.1 8.4-6.1 10.5-2.5 24.3 7.9 29.7 4.8 2.5 13.7 2.9 18.6.8 3.4-1.4 3.5-1.7 2.1-5.5-.9-2.5-1.1-2.5-3.4-.9-1.4.9-4.5 1.6-7 1.6-13.7.3-19.7-16.5-9.3-26.1 3.3-3 10-3.8 14.9-1.8l3.7 1.5 1-2.9c1-2.9.8-3.1-2.2-4.4-5.3-2.2-11.1-2.3-16.2-.4zM643.9 374.4c-.1.3-.3 1-.4 1.6-.1.5-.3 2.8-.4 4.9-.1 3.4-.4 3.8-2.1 3.4-1.6-.4-2 0-2 2.1 0 1.9.5 2.6 2 2.6 2.2 0 2.2.3 2.1 12.7v6.3h6.5l-.1-8.3c-.1-4.5 0-8.8.3-9.5.2-.6 1.7-1.2 3.4-1.2 2.5 0 2.9-.4 2.6-2.3-.2-1.6-1.1-2.3-3.3-2.7-2.8-.5-3-.8-3-5s-.2-4.5-2.8-4.8c-1.5-.2-2.8-.1-2.8.2zM349.4 381.6c-8.2 4-8.9 16.8-1.1 21.8 5.5 3.6 13.9 1.9 17.9-3.6 1.7-2.5 1.8-3.2.7-3.9-2.3-1.4-3.7-1.1-6.3 1.6-1.4 1.4-3.7 2.5-5.2 2.5-3 0-3.2.4 4.1-8.5 6-7.3 6-7.2 2.3-9.5-3.9-2.4-8.1-2.5-12.4-.4zm7 4c1.3.5.9 1.5-2.1 5.3-2.1 2.5-3.9 4.8-4.1 5.1-.5.8-2.2-2.4-2.2-4.3s4.2-6.7 5.9-6.7c.5 0 1.6.3 2.5.6zM415.8 385c-6.2 2.9-8.6 11.6-4.8 17.8 6.5 10.7 24 6 24-6.4 0-6.1-1.7-9.1-6.5-11.4-4.7-2.3-8-2.3-12.7 0zm10.7 5.6c5.9 5.4.2 15.5-6.9 12.3-4.9-2.3-5.6-8.7-1.3-12.5 3.1-2.7 5.2-2.6 8.2.2zM450.7 384.9c-2.6 1.3-3.7 1.5-3.7.6 0-.7-1.3-1.2-3-1.3l-3.1-.1.3 11.7.3 11.7 2.8.3c2.6.3 2.7.2 2.8-5 .1-6.9.4-8.4 2.4-11.4 1.2-1.9 2.3-2.4 4.3-2.2 2.7.3 2.7.3 3 9.5l.3 9.3h2.9c1.7 0 3-.3 3-.8.1-.4.2-3.7.4-7.4.3-7.8 2.4-11.1 6.5-10.6 2.6.3 2.6.5 2.9 9.5l.3 9.3h5.9v-10.4c0-10.1-.1-10.5-2.6-12.5-3-2.3-8.8-2.2-11.2.3-1.3 1.2-1.9 1.2-4.6-.5-3.9-2.4-5.3-2.4-9.9 0zM496.3 385.1c-2.7 1.4-3.3 1.4-3.3.3 0-.9-1.1-1.4-2.9-1.4h-2.9l-.1 17.5V419h3c2.7 0 2.9-.3 3-3.8.1-2 0-4.9-.1-6.4l-.1-2.8 3.5 1.5c8.9 3.8 17.6-1.9 17.6-11.5 0-5.4-2.2-9.4-6.3-11.3-4-1.9-7.1-1.8-11.4.4zm10.3 6.7c2.8 3.6 1.5 8.6-2.8 10.8-6.1 3.2-12.6-3.1-9.6-9.2 2.5-5.4 8.9-6.2 12.4-1.6zM527.3 383.7c-2.3.4-8.2 5.9-8.4 7.7-.9 7.5.6 12.4 4.7 15.1 5.8 3.8 15.4 2.1 19-3.3 2.1-3.1 2.3-10.2.4-13.7-2.5-4.7-8.8-7-15.7-5.8zm8.1 6.4c2 1.6 2.6 2.9 2.6 5.9 0 9.2-11.9 10.1-13.2.9-.5-3.3 1.4-6.6 4.6-7.9 3-1.2 3-1.2 6 1.1zM559.6 384.9c-2.4 1.3-3.6 1.5-3.6.7 0-.6-1.2-1.3-2.8-1.4l-2.7-.2v23.5l3 .3 3.1.3.1-7c.1-8.6 1.9-12.1 6.3-12.1 1.6 0 3.2.5 3.5 1.1.4.6.7 4.8.7 9.5v8.4h2.9c2.7 0 2.9-.3 3-3.8.3-11.8-.2-16.7-2-18.6-2.6-2.6-7.2-2.9-11.5-.7zM586.3 385c-4.9 2.5-7.2 6.7-6.8 12.2.7 8.7 7.7 13.2 16.7 10.7 4.5-1.2 5.3-2.3 3.6-4.8-1-1.4-1.8-1.7-2.8-1-2.3 1.3-7.6 1.1-8.9-.5-1-1.2.3-1.9 7.1-4.1 4.6-1.5 8.6-3 9-3.4 1.2-1.1-1.9-6.9-4.6-8.6-4-2.7-8.6-2.8-13.3-.5zm9.3 4.4c2.3 1.8 1.6 2.5-4.4 4.8-6.1 2.3-6.3 2.3-5.1-.9 1.8-4.9 5.8-6.5 9.5-3.9zM619.8 384.8c-2.7 1.4-3.8 1.6-3.8.7 0-.7-1.2-1.2-2.7-1.1l-2.8.1v23l3 .3 3 .3.1-7.5c0-8.2 1.7-11.6 5.9-11.6 3.7 0 4.5 1.9 4.5 10.7v8.3h6v-9.9c0-7.9-.3-10.3-1.7-12-2.6-3.1-7.1-3.6-11.5-1.3zM664.4 384.5c-3.3 1.3-4.4 3.2-4.4 6.9 0 2.8 2.3 5 7.4 7.1 2.6 1.1 3.6 2.1 3.4 3.3-.4 2.3-4.1 2.7-7.2.7-2.3-1.5-2.5-1.5-3.5.4-1.5 2.7-1.5 2.7 2.3 4.5 5.9 2.8 14.5.1 14.7-4.7.3-5.4-1.6-8.2-6.1-9.2-3.8-.8-5.9-3.3-3.9-4.6 1.4-.9 2.8-.8 6.1.6 1.1.4 2 0 2.7-1.4.9-1.7.8-2.2-.9-3.1-3.2-1.7-7.3-1.9-10.6-.5zM146.7 405.7c-4.8 11.4-8.7 21.1-8.7 21.5 0 .5 1.3.8 3 .8 2.5 0 3.2-.6 4.5-3.8 2.6-6.6 2.6-6.6 10.1-6.7h6.9l2.1 5c1.8 4.6 2.3 5 5.7 5.3 2 .2 3.7.1 3.7-.2 0-1-17.1-41.1-17.9-41.9-.4-.4-4.7 8.6-9.4 20zm13.2 5c.1.9-1.4 1.3-4.4 1.3-2.5 0-4.5-.2-4.5-.4s1-3 2.2-6.2l2.2-5.8 2.2 5c1.3 2.7 2.3 5.5 2.3 6.1zM180.5 406.7v20.8l3.2.3 3.2.3.3-11.6.3-11.7 6.4 9.1c3.5 5 6.7 9.1 7 9.1.3 0 3.6-4.4 7.4-9.7l6.7-9.6V428H221.7l-.1-20.5c-.1-13-.5-20.4-1.1-20.3-.5 0-5.1 5.9-10.2 12.9l-9.1 12.9-3-3.8c-1.6-2-5.9-8.1-9.6-13.5-3.7-5.3-7.1-9.7-7.4-9.7-.4 0-.7 9.3-.7 20.7zM321.5 387.3c-1.7 1.3-1.7 1.6.6 5.6 2.2 3.9 2.2 4.4.7 5.5-2.2 1.6-.1 6 2.2 4.6.8-.5 1.7-1 2.1-1 .3 0 2.4 3.4 4.8 7.5 2.3 4.1 4.5 7.6 4.9 7.9.4.2 1.8-.3 3-1.3l2.3-1.7-4.1-6.8c-5.5-9.1-5.6-9.2-2.6-10.8 2.4-1.3 2.5-1.5 1-3.6-1.4-2.1-1.6-2.1-4.1-.5-1.5 1-2.8 1.3-3 .8-.7-2.2-4.3-7.5-5.1-7.5-.4 0-1.6.6-2.7 1.3zM232 407.5V428h6.5v-14.4l4.9-.2c2.7-.2 6.1-.8 7.5-1.4 6-2.5 8.7-11.5 5.4-18-2.6-5.1-7.2-7-16.5-7H232v20.5zm17-12.5c1.1 1.1 2.1 2.6 2.1 3.2.5 5.8-2.4 8.8-8.5 8.8h-4.2v-14h4.3c3 0 4.9.6 6.3 2zM307.3 394.7c-.7.2-1.3 1.5-1.3 2.8 0 3.9 5.3 4.4 6.3.5.8-3-1.7-4.7-5-3.3zM312.8 404.1c-1 .5-1.8 1.4-1.8 1.9 0 .8 10.4 18.6 11.6 19.9.2.2 1.5-.4 2.8-1.3l2.5-1.6-6-10c-3.3-5.5-6.3-10-6.7-10-.4 0-1.5.5-2.4 1.1zM741.8 407.7c-1.5.4-1.6 1.2-1.1 4.9.5 3.9.3 4.7-1.5 6-2.6 1.8-1.8 4.4 1.3 4.4 1.9 0 2.3.7 2.8 4.7.4 2.7.9 5.7 1.1 6.8.3 1.1.5 3 .5 4.2.1 2.4 2.4 3 4.9 1.5 1-.7 1-2.5-.1-9.5-.8-4.8-1.2-8.9-.9-9.2.3-.3 1.6-.5 2.9-.5 2 0 2.4-.5 2.1-2.3-.2-1.8-.9-2.2-3.5-2-3 .3-3.1.2-3.8-4.7-.7-4.9-1.1-5.3-4.7-4.3zM803.9 411.3l-2.1 4.4-3.7-3.4c-2-1.8-4.2-3.1-4.9-2.8-.8.3-2.3.5-3.5.5-1.8 0-1.3.9 3.2 5.4l5.3 5.3-3.1 6.2-3.1 6.1h2.8c2.3 0 3.2-.8 5-4.5l2.2-4.6 3.6 3.3c2 1.8 4 3.3 4.5 3.2.5-.1 2.1-.2 3.6-.3 2.7-.1 2.6-.2-2.9-5.9-5.1-5.2-5.5-5.9-4.3-7.7.8-1.1 2.1-3.7 3-5.8l1.5-3.7h-2.5c-2 0-3 .9-4.6 4.3zM604.7 408.6c-.3.4-.6 10.3-.7 22V452h3c1.6 0 3-.3 3.1-.8.1-.4.2-2.1.3-3.7.2-3.1 1.2-5.5 2.4-5.5.4 0 2 2.3 3.7 5 2.7 4.6 3.2 5 6.8 5h3.9l-4.6-6.5c-2.5-3.6-4.6-6.9-4.6-7.3 0-.4 1.8-2.3 4.1-4.2l4.1-3.6-2.6-1.3c-2.3-1.3-2.8-1.1-7.4 2.8-2.8 2.2-5.2 4.1-5.4 4.1-.2 0-.3-5.5-.3-12.3.1-6.7-.1-13-.3-14-.4-1.6-4.2-2.4-5.5-1.1zM297.2 413c-3.6 2.2-5.1 5.1-4.4 8.7.7 3.7 4.3 5.5 10.3 5.1 3.2-.2 5.3.1 5.6.8.7 1.9-2.7 4.4-5.8 4.4-2.6 0-3 .3-2.7 2.2.2 1.9.9 2.3 3.7 2.1 1.9-.1 4.4-.7 5.6-1.3 4.7-2.5 6.2-9.5 2.9-13.1-1.7-1.8-2.6-2-7.6-1.5-3.9.5-5.9.3-6.4-.5-.9-1.5 3.4-5.2 5.2-4.5 1.7.7 2.6-.8 1.8-2.8-.8-2.2-4.2-2-8.2.4zM358.5 431.2v20.3l3.3.3 3.2.3V435h16v-6h-16v-12h9c5 0 9-.3 9.1-.8.6-5.7 1.8-5.2-12-5.2h-12.7l.1 20.2zM780 411.7c-.8.3-1.8 1-2.1 1.5-.3.5-1.6.5-3 0-3.2-1.2-8.4-.6-11.4 1.4-3.1 2-4.9 7.5-4.2 12.8 1.2 8.8 11.4 12.8 18.9 7.4 1.6-1.1 2.8-1.5 2.8-.9 0 1.2 4.6 1.5 5.3.3.3-.4-.1-4.3-.9-8.7-1.7-10-2.2-12.8-2.3-13.8-.1-.8-.9-.8-3.1 0zm-3 7.3c4.7 4.7 1.9 13-4.5 13-4.3 0-7.5-3.2-7.5-7.5 0-6.5 7.6-9.9 12-5.5zM660 413.9c-4.7 1-7.4 2.5-9.4 5.5-2 3.1-2 5.6-.2 10 1.4 3.4 1.3 3.4 15.3 8.3 2.4.8 4.5 2.3 4.8 3.4 2.1 6.4-5.3 10.2-14.7 7.5-2.2-.6-2.7-.4-3.3 1.4-1 3.2.5 4.1 7.4 4.7 11.4 1.1 18.1-4.5 16.8-13.8-.7-5.6-3.9-8.4-11.1-9.9-5.8-1.2-10.6-4.2-10.6-6.6 0-.8 1-2.4 2.1-3.5 1.9-1.9 3-2.1 8-1.6 5.2.4 5.9.3 6.5-1.5.7-2.2-.9-3.8-3.8-3.8-.9 0-2.2-.2-3-.4-.7-.2-2.9-.1-4.8.3zM255.3 415.2c-1.3.6-2.3 1.5-2.3 2s5 9.2 11 19.3l11.1 18.5 2.4-1.6c1.5-1 2.2-2.1 1.8-3.1-.5-1.3-.2-1.5 1.2-1 1.1.5 3.6-.1 6.2-1.4 5-2.4 7.7-7 7-11.7-2-11.9-13.8-16.1-21.6-7.6-2.6 2.8-3.5 3.3-4.2 2.3-.5-.8-3-4.9-5.5-9.2-2.5-4.2-4.7-7.7-4.7-7.6-.1 0-1.2.5-2.4 1.1zm28.2 15.4c.8.4 2.3 2 3.1 3.6 1.3 2.4 1.3 3.5.4 5.8-1.3 3.2-5.8 5.5-8.9 4.5-2.3-.7-5.8-5.3-5.5-7.3.1-.6.2-1.7.3-2.2.4-3.5 6.4-6 10.6-4.4zM719 421.7c-1.4.9-2.8 2.1-3.1 2.6-.3.5-.9.2-1.2-.6-.3-.9-1.4-1.3-3-1-2.9.6-2.9-.5.4 17.9 1 6.1 1.1 6.2 3.7 5.4 1.6-.4 2.6-1.3 2.4-2.1-.2-.8-.6-4.4-.9-8-.5-6-.3-6.8 1.8-8.8 1.2-1.1 2.8-2.1 3.5-2.1 1.8 0 4.4 2.9 4.5 5.1.1 1 .2 2.2.3 2.6.1.5.6 3.1 1 5.9.6 4.1 1.1 5.1 2.4 4.9.9-.2 2.3-.4 3-.4 1.4-.1 1.3-.7-.9-13.9-.8-4.4-1.7-6.7-3.2-7.7-2.8-2-7.7-1.9-10.7.2zM700 425c-.6.4-2 4-3 7.9-1 4-2 7.5-2.3 7.7-.2.2-2.4-2.7-4.9-6.4-4.3-6.4-4.8-6.9-7.7-6.4-1.7.2-3.1.6-3.1.9 0 .3 3.1 4.9 6.9 10.3l7 9.9-1.5 5.3c-1.9 7.4-1.9 7.8 1.3 6.9 2.6-.7 2.9-1.6 7-17.7 2.3-9.3 4.3-17.4 4.3-18 0-1.2-2.3-1.4-4-.4zM401 427.7c-.8.3-2.5 1.4-3.6 2.5-2.1 1.9-2.1 1.9-2.7-.1-.3-1.5-1.3-2.1-3.1-2.1H389v24h6v-6.4c0-5.3.4-7 2.3-9.1 1.2-1.4 3.2-2.7 4.5-2.8 1.8-.1 2.2-.7 2.2-3.4 0-3.3-.3-3.6-3-2.6zM413.2 429.1c-3.8 2.2-5.1 4.7-5.7 10-.9 9.7 8.4 16.6 16.8 12.4 2-1 3.3-1.2 3.5-.5.2.5 1.7 1 3.3 1h2.9v-24h-2.9c-1.6 0-3.1.6-3.4 1.2-.3 1-.8 1-2.1-.1-2.6-2.2-8.9-2.2-12.4 0zm14.2 8.1c2 5.6-2.4 11-8.2 10-4.7-.7-7-8.1-3.8-12.1 3-3.8 10.4-2.5 12 2.1z"/><path d="M453 427.7c-.8.3-2.2 1.2-3.1 2-1.4 1.2-1.7 1.2-2.2-.2-.4-.8-1.8-1.5-3.2-1.5H442v11.9c0 10.6-.2 11.9-1.8 12.3-1.6.5-1.8 1.7-1.7 11.2 0 5.8 0 10.6-.1 10.6s-1.5-.7-3-1.5c-3.6-1.9-6.5-1.9-10.9-.1-4.4 1.9-6.7 5.5-6.7 10.8-.1 5.9 2.5 10.6 7 12.5 3.7 1.5 6.8 1.2 12.6-1.2 1.4-.6 1.7-.5 1.2.3s.3 1.2 2.7 1.2h3.4l-.1-21.7c-.1-19.8 0-21.7 1.7-22.1 1.3-.3 1.7-1.6 1.8-5.6.1-9.6 2-13.6 6.4-13.6 3 0 3.5 1.6 3.5 11.1v7.9h6v-6.3c0-9 3.6-14.7 7.8-12.1 1.4.9 1.7 2.7 1.8 9.5v8.4l3.3.3 3.3.3-.4-10.6c-.3-9.8-.5-10.8-2.7-12.6-3-2.4-5.7-2.4-10.4.1-2 1.1-3.7 1.6-3.7 1.2 0-2.1-6.6-3.7-10-2.5zM435.2 478c3.6 2.8 4.2 7.7 1.2 10.7-6.2 6.1-15.5-1.1-11.3-8.8 1-1.9 4.1-3.7 6.5-3.8.6-.1 2.3.8 3.6 1.9zM493.5 428.4c-4.6 2-6.7 5-7.3 10.2-.7 6.3 1.7 10.8 6.9 12.8 4.9 2 7 2 11.5.1 3.4-1.4 3.5-1.5 1.9-3.9-1.4-2.1-1.9-2.3-4.4-1.3-2.8 1-8.1.3-8.1-1.2 0-.5 3.5-2.1 7.8-3.6 4.2-1.5 8.1-3.1 8.6-3.5 1.3-1.3-1.1-6.2-4-8.4-3.3-2.4-9.1-3-12.9-1.2zm9.3 6c1.1 1 .2 1.7-4.3 3.4-3.1 1.2-5.9 2.2-6.1 2.2-1.3 0 0-3.5 2.1-5.6 2.6-2.6 5.5-2.6 8.3 0zM559 428.3c-7.1 2.5-10.1 11.7-6 18.5 4.8 7.8 17.8 8 22.3.3 4.1-7 1.6-15.7-5.4-18.5-4.6-1.9-6.2-1.9-10.9-.3zm10.5 7c3.2 4.5.9 11-4.2 12-3.8.7-8.6-4.1-7.9-8 1.2-6.3 8.7-8.8 12.1-4zM592.7 429.4c-3.5 2.4-3.7 2.4-3.7.6 0-1.6-.7-2-3-2h-3v24.1l3.2-.3 3.2-.3.1-6.2c.2-6.8 2.3-11.3 5.4-11.3 2.2 0 3.6-1.8 3.6-4.4 0-2.9-1.7-2.9-5.8-.2zM635.4 428.4c-7.2 3.2-5.4 11.6 3.1 14.3 2 .6 3 1.6 3 2.9 0 2.5-3.6 3-6.9.9-2.3-1.5-2.5-1.5-3.5.4-1.6 2.8-1.5 3.1 2.2 4.6 4.3 1.8 10.5 1.2 12.7-1.2 4.4-4.6 2.3-11.4-3.9-12.8-3.7-.8-5.3-2.6-4.1-4.5.8-1.2 1.4-1.3 4.2-.2 2.9 1.1 3.5 1 4.6-.5 1-1.4 1-1.9 0-2.9-2.1-2-8-2.5-11.4-1zM513 429c0 .5 2.4 6.5 5.4 13.2l5.5 12.3 2-5c1.2-2.8 2.7-6.3 3.4-7.9l1.3-2.8 3.3 7.1c1.8 3.9 3.6 7.1 4 7.1.7 0 11.1-23.1 11.1-24.5 0-.4-1.4-.5-3.1-.3-2.8.3-3.4.9-5.7 6.8l-2.6 6.4-2.9-6.7c-2.7-6-3.3-6.7-5.8-6.7-2.6 0-2.8.2-1.8 2.3.8 1.7.6 3.3-.9 6.6l-1.8 4.4-2.9-6.6c-2.5-6-3.1-6.7-5.7-6.7-1.5 0-2.8.4-2.8 1zM225.8 436.6c-1.6.8-2.8 1.6-2.8 1.7 0 .1 1.3 6.3 2.9 13.7 1.6 7.4 2.7 13.7 2.6 13.8-.2.2-5.4-3.5-11.5-8.2-6.2-4.7-11.5-8.6-11.9-8.6-.4 0-1.6.7-2.7 1.5-2.1 1.6-2 1.7 5.3 7.5 1.6 1.3 2.5 3.7 3.6 10.1.8 4.6 1.4 8.5 1.3 8.6 0 .1-5.2-4.1-11.5-9.2-11.7-9.6-11.6-9.6-16-6.6-1.7 1.1-2.1.7 17.9 16.5 17.2 13.7 17.3 13.7 16.6 9.4-.5-3.2-.7-4.4-2.2-15.3-.3-2.8-.8-5.4-1.1-5.8-1-1.7 3.2 1.2 10.7 7.2 4.1 3.3 8 6.1 8.6 6.1.9 0-1-13.4-4-28.5-.4-1.7-.9-4.7-1.2-6.8-.3-2-.9-4.8-1.2-6.1-.7-2.3-.8-2.4-3.4-1zM248.4 442c-2.9 1.1-7.4 6.7-7.5 9.3-.4 7 1.3 10.6 6.2 13.6 5.2 3.2 13.8 1 17.3-4.4 1-1.5 1.6-2.8 1.4-2.9-2.9-2.4-4.3-2.3-6.9.5-1.7 1.8-3.7 2.9-5.4 2.9-3.1 0-3.3.4 4-8.5 6-7.3 6-7.2 2.3-9.5-3.4-2.1-7.8-2.5-11.4-1zm6 4.6c1.4.5 1 1.4-2.1 5.3-2 2.5-3.8 4.8-4 5.1-.7.8-2.3-2.4-2.3-4.7 0-1.2 1.2-3.1 2.6-4.2 2.9-2.3 3.4-2.4 5.8-1.5zM482.9 452.7c-.1.8-.1 32.7 0 39.5.1 3.5.3 3.8 3.1 3.8h3v-44h-3c-1.6 0-3 .3-3.1.7zM338.9 462.2v32.5c.1.8 1.4 1.3 3.1 1.3h2.9l.3-11.6.3-11.7 6.5 9.1c3.6 5.1 6.8 9.2 7.1 9.2.3 0 3.5-4.1 7-9 3.4-5 6.6-9 6.9-9 .3 0 .6 5.1.5 11.2v11.3l3.3.3 3.2.3v-21c0-11.6-.3-21.1-.7-21.1-.5 0-2.9 3.1-5.5 6.8-2.6 3.7-7 9.8-9.7 13.5l-4.9 6.9-9.6-13.6c-5.3-7.5-9.9-13.6-10.1-13.6-.3 0-.5 3.7-.6 8.2zM725.3 461.1c-2.2 1.1-5.4 3.9-7 6.1-2.5 3.7-2.8 4.9-2.8 12.3 0 7.2.3 8.6 2.8 12.3 5.1 7.7 16.7 10.8 26 6.9 3.5-1.5 3.6-1.8 2.5-4.1-1.2-2.9-2-3.1-4.8-1.6-6.7 3.6-15.6.6-18.9-6.3-3.4-7-2.2-13.5 3.2-18.6 3.4-3.1 11.1-4 15.4-1.8 2.9 1.6 3.1 1.5 4.2-.9 1.5-3.3 1.5-3.1-1.9-4.9-4.3-2.2-13.6-1.9-18.7.6zM760.4 460.6c-3.8 1.8-5.7 5.2-5.7 9.9 0 4.6 2.4 7.1 10 10.7 3.4 1.5 6.9 3.8 7.7 4.9 1.8 2.7.8 6-2.5 7.6-3.4 1.8-6.4 1.6-11-.6-3.8-1.9-4-1.9-4.9-.1-1.6 2.9-1.2 3.6 2.8 5.3 5 2.2 12 2.7 16 1 3.8-1.5 7.2-6.6 7.2-10.6 0-5.6-2.7-8.7-10.6-12.3-7.9-3.6-9.3-5.2-7.6-8.8 1.4-3.1 5.2-3.9 10.4-2.2 3 1.1 4.6 1.2 5.5.4 5.6-4.6-9.3-9.2-17.3-5.2zM791.9 461.3c-4.5 3-5.9 8.3-3.7 13 1.2 2.6 3.3 4.1 9.1 6.9 7.6 3.7 9.5 5.9 8.2 9.6-.6 2.2-4.5 4.2-7.8 4.2-1.3 0-4-.9-6.2-2-2.1-1.1-3.9-1.9-4-1.7-3.3 4.2-2.2 6.1 4.7 8.1 10.9 3.2 19.6-1.5 20-10.8.2-5.2-2.7-8.5-10.4-12.3-7.8-3.7-9.6-6.1-7-9.2 2.2-2.7 5.9-3.2 10.7-1.6 3.4 1.2 4 1.2 5.1-.3 2-2.5 1.8-2.8-2.6-4.6-5.8-2.3-12-2.1-16.1.7zM551.2 462.2c-2.6 2.6.1 6.5 3.8 5.3 1.6-.5 2-1.4 1.8-3.3-.3-3-3.5-4.1-5.6-2zM644.3 461.6c-1.8.8-1.6 3.9.3 5.5 2.1 1.7 4.9 0 4.9-3.2 0-2.4-2.4-3.4-5.2-2.3zM625.9 462.7c-.1.5-.2 2.6-.3 4.8-.1 3.3-.5 4.1-2.3 4.3-1.7.2-2.3 1-2.3 2.7 0 1.7.6 2.5 2.3 2.7 2.1.3 2.2.7 2.2 9.3v9l3.3.3 3.2.3v-9.5c0-5.3.3-9.5.8-9.5 3.5.6 5.2-.3 5.2-2.6 0-2.1-.5-2.5-3-2.5-2.9 0-3-.1-3-5s-.1-5-3-5c-1.6 0-3.1.3-3.1.7zM822.8 462.8c-2.4.3-2.8.8-2.8 3.3 0 2.8.1 2.9 5 2.9 2.8 0 5 .2 5 .4s-1.6 2.7-3.5 5.6c-1.9 2.9-3.5 5.5-3.5 5.9 0 .3 1.8.5 3.9.3 7.7-.7 10.5 6.4 4.5 11.6-2.7 2.4-4.8 2.3-9-.3-1.9-1.2-2.3-1.1-3.5 1.2-1.2 2.3-1.1 2.7 1 4.4 3.5 2.8 11.6 2.9 15.8.2 7.4-4.9 6.9-18.5-.7-21.2-2.2-.7-2.9-1.5-2.4-2.3.4-.7 2.3-3.6 4.1-6.5l3.3-5.1-7.3-.4c-3.9-.2-8.4-.2-9.9 0zM563 472.9c0 3.6.5 4 5.6 4.2 2.1.1 4.2.4 4.6.6.4.2-2 4.2-5.2 8.9-3.3 4.6-6 8.7-6 8.9 0 .3 5 .5 11 .5h11v-2.5c0-2.4-.3-2.5-6.1-2.5h-6.1l5.7-8c8.1-11.6 8.1-11-1.4-11-4.7 0-8.1-.4-8.1-1s-1.1-1-2.5-1c-2.1 0-2.5.5-2.5 2.9zM395 472.3c-7.1 2.5-10.1 11.7-6 18.5 3.5 5.7 13 7.7 19 4 6.7-4.2 6.7-17.4-.1-21.6-2.9-1.8-9.1-2.3-12.9-.9zm10.4 6.9c2.9 4.1 1.9 9.1-2.3 11.2-6.9 3.5-12.7-5.7-7.4-11.6 2.3-2.6 7.8-2.3 9.7.4zM501.2 473c-7.5 4.6-8.3 16.4-1.4 21.5 3 2.2 11.4 2.7 13.4.7.8-.8 1.5-.8 2.4-.1.7.6 2.3.9 3.6.7 2.2-.3 2.3-.6 2.3-11.8v-11.5l-2.7-.3c-2.1-.3-2.8.1-2.8 1.4 0 1.6-.1 1.6-2-.1-2.8-2.5-9.1-2.8-12.8-.5zm13.4 7.3c1.7 4.9.3 9.2-3.4 10.5-9.1 3.1-13.8-10.4-4.7-13.8 2.8-1 7.3.8 8.1 3.3zM539.5 473c-4.6 2.4-4.6 2.3-4.2.7.1-.7-.9-1.2-2.7-1.2h-2.9l.1 10c0 5.5.1 10.8.1 11.7.1 1.3.9 1.8 3.1 1.8h3v-6.8c.1-7.5 1.2-9.7 5.9-11.3 2.5-.9 3.1-1.6 3.1-4 0-3.4-.4-3.5-5.5-.9zM594.5 472.7c-3.3 1.8-5.8 6.9-5.7 11.9 0 5.3 1.5 8 5.5 10.4 3.8 2.4 6.6 2.5 11.2.6 1.9-.8 3.5-1.1 3.5-.5 0 .5 1.4.9 3 .9h3v-11.5c0-9.8-.3-11.7-1.6-12.2-.9-.3-2.4-.2-3.3.4-1.1.8-2.4.7-4.3-.3-3.2-1.7-7.7-1.5-11.3.3zm13 6.6c1.9 2.7 1.9 6.7 0 9.4-1.9 2.8-4.6 3.3-8.3 1.7-5.3-2.2-5.6-10.1-.6-12.7 3.3-1.7 7-1.1 8.9 1.6zM663.5 472.3c-2.9 1-7.4 5.2-7.6 7.2-.1.5-.3 2.3-.5 3.9-.4 3.9 1.9 9.1 5 11.1 3 2 9.9 2.6 13.8 1.3 6-2.1 9.3-10.9 6.3-17.2-2.9-6.1-10.1-8.8-17-6.3zm9.8 6.5c2.4 2.1 2.3 8.4-.3 10.7-4.4 4-11.4.6-11.2-5.5.2-6.8 6.3-9.6 11.5-5.2zM695.9 473.2c-1.9 1.2-2.8 1.3-2.6.5.1-.6-1-1.3-2.5-1.5-2.1-.3-2.8.1-2.9 1.5-.1 2.9-.1 18.6 0 20.5.1 1.3.9 1.8 3.1 1.8h3v-6.6c0-8.8 1.9-12.4 6.7-12.4 3.1 0 3.7 1.4 3.8 10.5l.1 8h5.9l.2-8.5c.1-4.7-.3-9.7-.8-11.2-1.9-4.7-8.5-6-14-2.6z"/><path d="M452.8 472.7c-.4.7-.3 13.2.1 18.5.3 5.1 7.3 7.3 13.1 4.3 1.7-.9 3-1.1 3-.5 0 .5 1.4 1 3 1h3v-24h-6v6.1c0 5.5-2.2 12.8-3.9 13-.3 0-1.4.2-2.3.4-2.9.5-4-2.2-4.2-10.7-.1-8.2-.1-8.3-2.8-8.6-1.4-.2-2.8 0-3 .5zM550.8 472.7c-.3.4-.4 5.7-.4 11.8l.1 11 3.1.3 3.1.3-.1-11.8-.1-11.8-2.7-.3c-1.4-.2-2.8 0-3 .5zM643.2 484.1l-.1 12 3.2-.3 3.1-.3.1-10c.1-12.7-.1-13.5-3.5-13.5h-2.8v12.1zM185.8 488.2c-.2.7-.4 9.8-.4 20.3l.1 19 13.3.3 13.3.3-.3-2.8-.3-2.8-10.1-.3-10-.3.1-16.2c0-8.9-.1-16.8-.3-17.5-.2-.6-1.4-1.2-2.7-1.2-1.3 0-2.5.6-2.7 1.2zM312 492.5c-4.6 2.1-6.8 4.2-9.2 8.9-5.4 10.5-1.5 23.7 8.5 28.7 5.1 2.6 14 2.8 18.6.5 3.4-1.8 3.7-2.4 1.9-4.9-1.2-1.5-1.7-1.5-5.6-.2-13.6 4.8-24.9-9.7-17.1-22 4.4-6.9 9.3-8.1 19.6-5 2.8.9 4.3-3 1.9-5.3-2.3-2.3-14-2.7-18.6-.7zM560.3 497.7c-2 .7-1.5 4.1.6 5.3 1.5.7 2.3.6 3.5-.6 1.9-1.9 2-2.6.4-4.2-1.3-1.3-2.4-1.4-4.5-.5zM652.1 498.4c-.6.7-.9 2-.5 2.9 1.5 3.9 7.2 1.9 6-2.1-.8-2.5-3.8-2.9-5.5-.8zM541.9 499.7c-.2 2.5-.6 6.6-.8 8 0 .7-.4 1.2-.8 1.2-2.2-.4-3.3.3-3.3 2 0 1.3.8 2.1 2.3 2.3 2.1.3 2.2.7 2.2 9.3v9l2.8.3c3 .4 2.9.9 2.9-11.1V513h3.4c2.1 0 3.4-.5 3.4-1.3 0-2.3-1.5-3.5-4-3.3-2.3.1-2.5-.3-2.6-3.9-.1-2.2-.2-4.6-.3-5.3-.2-2-5.1-1.5-5.2.5zM633.8 503.2c-.2 3.9-.7 5.3-1.8 5.3-1.6 0-2 .6-2 3 0 .8.9 1.5 2 1.5 1.9 0 2 .7 2 9.5v9.5h6v-19h3c2.5 0 3-.4 3-2.3s-.5-2.3-2.7-2.3c-2.6.1-2.8-.2-3.3-4.9-.5-4.5-.7-5-3.2-5.3-2.6-.3-2.7-.1-3 5zM225.4 504.1c-5 1.4-7.7 5.1-8.2 11.4-.4 5.2-.3 5.6 3.1 9 1.9 1.9 4.6 3.6 5.9 3.6 10.5.7 15.4-2.7 16.3-11 .9-9.1-7.5-15.5-17.1-13zm6.9 5c2.6 1.2 4.7 4.7 4.7 7.8 0 3.1-4.9 7.2-7.9 6.6-6.5-1.1-8.6-9.4-3.3-13.5 2.9-2.3 3.3-2.4 6.5-.9zM280.9 504.7c-4.1 1.7-6.7 5-7.4 9.6-1.7 10.3 8.2 16.8 19.2 12.6 2-.7 2.2-1.2 1.3-2.9-1.2-2.3-1.8-2.4-5.4-1-2.6 1-7.6-.4-7.6-2.1 0-.8 8.6-4.3 13.5-5.5 3.5-.9 4-2.7 1.9-6.3-3-5.1-9.3-6.9-15.5-4.4zm8.2 4.3c1 .6 1.9 1.5 1.9 2 0 1-5.4 3.6-9.7 4.6-3.1.8-3.1-1.9.2-5.1 2.6-2.7 4.6-3.1 7.6-1.5zM245.6 504.9c-.3.5 11.1 22.2 12.4 23.4.3.3 3.3-4.8 6.8-11.4 3.4-6.5 5.9-12 5.5-12-5.3-.9-5.4-.8-8.7 6.5l-3.2 7.1-3.3-7c-2.8-6.3-3.5-7-6.2-7.1-1.6-.1-3.1.1-3.3.5zM571.6 508.7c.7 3.8 1.2 4.1 6.7 4.5l4.8.3-6 8.7c-3.4 4.8-6.1 8.9-6.1 9.2 0 .3 4.7.6 10.4.6 7.8 0 10.5-.3 10.9-1.3 1-2.5-.8-3.6-6.5-3.9l-5.6-.3 6-8.4c3.3-4.5 5.6-8.6 5.3-8.9-.4-.4-3.9-.7-7.8-.7-4.6-.1-7.2-.5-7.5-1.3-.2-.7-1.4-1.2-2.7-1.2-2 0-2.3.4-1.9 2.7zM347.5 507.8c-8.1 1.8-12 11.6-7.5 18.9 2.3 3.8 4.6 5.2 9.7 5.6 7.9.8 14.3-4.8 14.3-12.3 0-3.9-2.9-9.3-5.8-10.9-2.4-1.3-7.9-1.9-10.7-1.3zm8.8 7.4c4 4.6.7 12.1-5.3 12.1-3.8 0-7-3.1-7-7 0-7.3 7.6-10.5 12.3-5.1zM379.3 509.1c-4.4 2.3-4.4 2.2-4 .6.1-.7-.8-1.2-2.3-1.2h-2.5l-.2 11.8-.2 11.7h5.9v-7.3c.1-7.4.9-9.5 4.6-11.5 4-2.1 5.4.3 5.6 9.8.3 8.5.3 8.5 3.1 8.8l2.7.3v-7.3c.1-7.6.9-9.6 4.7-11.6 3.9-2.1 5.3.7 5.3 10.4v8.4h5.6l-.2-10.3c-.2-12.6.1-11.4-3.1-13-3.2-1.7-6.7-1.3-10.1.9-2.1 1.4-2.5 1.4-4 0-2.7-2.4-6.8-2.6-10.9-.5zM425.5 509c-3 1.5-3.7 1.6-4.2.4-.3-.8-1.6-1.4-2.8-1.4h-2.4l.1 17.5.1 17.5h2.9c2.8 0 2.8 0 2.8-6.5s.6-7.5 2.7-5.4c1.8 1.8 9.9 1.4 12.8-.5 5.2-3.4 6.8-12.4 3.1-18-3.2-5-9.5-6.5-15.1-3.6zm6.8 4.2c4.9 2.6 6.2 7.8 2.8 11.6-4.5 5.3-13.1 2.5-13.1-4.2 0-3.9 2.3-7.3 5.3-7.9 1.2-.2 2.3-.5 2.5-.6.2 0 1.3.4 2.5 1.1zM456.5 508.1c-1.6.5-3.8 1.5-4.7 2.3-7.1 5.4-5 18.7 3.4 21.2 9.9 3.1 17.8-2.4 17.8-12.3 0-5.2-3.6-9.8-8.8-11.3-4.2-1.1-3.7-1.1-7.7.1zm7.9 6c3.7 2.9 3.7 8.9 0 11.8-2.8 2.2-4.6 2.2-8.1.3-4.3-2.4-3.7-11.3.9-13.2 3.4-1.3 4.3-1.2 7.2 1.1zM491.2 508.1c-1.9.4-3.9 1.2-4.4 1.7-.8.8-1.5.7-2.4-.3-.8-.7-2.2-1.2-3.1-1.1-1.6.3-1.8 1.6-1.8 11.7v11.4l2.8.3 2.7.3V525c0-6.5.2-7.4 2.9-10 2-2 3.5-2.7 5-2.3 3.1.8 3.2 1.4 3.2 10.8v8.5h5.9v-8.9c0-4.9-.4-10.1-.9-11.4-1.2-3-5.5-4.6-9.9-3.6zM516.7 508.5c-3.5 1.2-7.5 4.8-7.8 7-1.2 8.4.8 13 6.6 15.6 4.1 1.8 9.1 1.7 12.7-.2 1.5-.8 1.6-1.3.5-3-.9-1.5-1.9-1.8-4.2-1.3-1.6.3-3.2.7-3.5.7-1.2.2-5-1.5-5-2.3 0-.4 3.5-2 7.8-3.6 4.2-1.5 8.1-3.1 8.6-3.5 1.3-1.1-1-6.1-3.8-8.1-3.2-2.3-7.6-2.8-11.9-1.3zm7.4 4.5c1 .6 1.9 1.5 1.9 2 0 1-5.4 3.6-9.7 4.6-3.1.8-3.1-1.9.2-5.1 2.6-2.7 4.6-3.1 7.6-1.5zM606.3 508c-5.3 1.2-7.7 3.9-8.8 10-1.8 10.2 7.9 17.6 17 13 2.8-1.4 3.5-1.5 3.5-.4 0 1.7 4.6 1.9 5.2.1.2-.6.3-5.9.3-11.7l-.1-10.4-2.7-.1c-1.7-.1-2.7.3-2.7 1.2 0 1.1-.5 1-2.4-.2-3-2-5.3-2.4-9.3-1.5zm7.7 5.5c5.4 2.8 5 11.4-.7 13.6-8.3 3.1-14.1-9.8-6.2-13.8 3.1-1.6 3.4-1.6 6.9.2zM674.1 507.8c-8.4 1.3-12.7 11.5-8.1 19 2.5 4 7 6.1 12.2 5.6 5.2-.5 7.5-1.9 9.8-5.7 2.4-3.8 2.5-7.5.6-12.2-2.2-5.2-7.8-7.8-14.5-6.7zm8.2 7.3c4 5-.1 13.5-6 12.5-6.2-1.1-8.3-8.7-3.8-13.2 2.9-2.9 7-2.6 9.8.7zM707.3 508.2c-1.8.4-3.5 1.3-3.8 1.8-.3.6-1.1 1-1.6 1-.6 0-.7-.5-.4-1 .3-.6.3-1-.2-1.1-.4 0-1.8-.2-3-.5-2.3-.4-2.3-.3-2.1 11.6l.1 12h2.9c2.8 0 2.8 0 2.8-6.5 0-7.3 1.4-11.1 4.4-12.2 5.4-1.8 6.6 0 6.6 10.5v8.3l2.8-.3 2.7-.3.1-9.4c.1-8.1-.2-9.7-2-11.8-2.5-2.8-4.9-3.3-9.3-2.1zM560 509c-.4.3-.8 5.6-.9 11.8V532h5.9v-11.9c0-11.4-.1-12-2-11.8-1.2.1-2.5.4-3 .7zM651.9 509.4c-.1 1.2-.1 18 0 20.8.1 1.3.9 1.8 2.9 1.8h2.7l-.1-10.3c-.2-14.1-.1-13.3-2.9-13.3-1.4 0-2.5.5-2.6 1zM780 518.5c-1.3 2.4-1.2 2.7 2.3 5.6 3.1 2.5 3.6 3.4 2.6 4.6-1.8 2.1 1.3 5.2 3.5 3.3 1.4-1 2.7-.4 8.6 4.5 6.9 5.6 7.1 5.7 9 4 1.1-1 2-2.2 2-2.6 0-.4-3.1-3.4-7-6.5l-7-5.8 2.3-2.4c2.2-2.3 2.2-2.4.3-3.8-2.6-1.9-3.2-1.8-5 .7l-1.5 2.2-3.8-3.2c-2-1.7-4-3.1-4.4-3.1-.3 0-1.2 1.1-1.9 2.5zM360.9 552.4l-4.5 19.5 2.8 1c2.7.9 2.8.8 3.8-3.2 2.3-9.2 2.7-10.2 4.1-9.9.8.2 3.7.6 6.4.9 6.4.6 11.2-2.3 13.2-8.1 3.5-10.2-2.5-16.8-17.4-19.2l-3.8-.6-4.6 19.6zm15.5-11.4c3.5 1.3 5.8 5.2 5 8.5-1 4.1-4.5 5.9-10 5-4.5-.6-4.5-.7-3.9-3.8 2.3-11.3 3-12 8.9-9.7zM482 555.5V576h6.5v-14.5l3.2-.2c3-.1 3.6.4 7.8 7.3 4.3 6.9 4.9 7.4 8.1 7.4 1.9 0 3.4-.3 3.4-.6 0-.4-2-3.9-4.5-7.9l-4.6-7.3 2.5-2.7c4.5-4.9 4.7-14.2.3-18.3-3.4-3.2-7.1-4.2-15.3-4.2H482v20.5zm15.3-13.6c4.4 1.7 5.3 8.7 1.6 11.8-1.2 1-6.1 1.7-9.6 1.4-.7-.1-1.1-2.4-1-7.1l.1-7h3.2c1.8 0 4.4.4 5.7.9zM777.4 536.8c-8.1 6.6-7.2 18.2 1.8 22.2 2.3 1 5.3 1.6 6.7 1.4 5-.9 10.7-6.6 11.3-11.4.4-3.6-4-3.8-5.3-.2-2.5 6.5-10.3 7.2-13.4 1.1-1.9-3.5-.6-7.4 3-9.1 3.3-1.5 3.5-5.8.3-5.8-1.3 0-3.3.8-4.4 1.8zM323 558v22h6v-44h-6v22zM234.3 542c0 3 .1 3 5.4 3h5.3v35h2.9c1.6 0 3.1-.6 3.3-1.3.2-.6.3-8.5.2-17.5l-.1-16.2h5.4c5.2 0 5.3 0 5.3-3v-3H234.3v3zM686 542.5c-2.5 3 1.5 7 4.5 4.5 2-1.6 1.9-4.6-.1-5.4-2.3-.9-3-.8-4.4.9zM451 550.9c-2.6.7-5.5 5.4-6.4 10.4-.9 5.2-1.8 6.9-3.2 6.3-.8-.3-1.9.4-2.5 1.6-1 1.9-.9 2.4.8 3.5 2 1.3 2 1.4.2 9.1-1.1 4.2-1.7 8.3-1.4 8.9.6 1.8 5.5 1.7 5.5-.1 0-.7.7-4.6 1.6-8.6l1.7-7.2 3.7.6c3.4.5 3.8.4 4.2-1.9.5-2.1.1-2.5-2.8-3.1-3.8-.7-3.8-.5-2.3-7.3 1.2-5.9 3.8-8.7 6.7-7.2 1.3.7 2.2.7 3-.1 1.9-1.9 1.4-3.6-1-4.3-4.2-1.2-5.3-1.3-7.8-.6zM523 552.3c-7.3 2.5-10.5 13.2-5.8 19.2 2.3 2.9 7.4 5.5 10.8 5.5 1.1 0 3.6-.7 5.6-1.5 3.1-1.3 3.3-1.6 2.2-3.5-1-1.6-1.9-1.9-4.5-1.4-3.6.7-8.3-.2-8.3-1.5 0-.5 3.5-2.1 7.8-3.6 4.2-1.5 8.1-3.2 8.7-3.7 1.5-1.4-2.4-7.5-6-9.2-3.9-1.9-5.8-1.9-10.5-.3zm8.1 5.6l2.3 1.8-5.8 2.2c-6.8 2.5-6.6 2.5-6.6.6 0-2 4.4-6.5 6.3-6.5.8 0 2.5.8 3.8 1.9zM550 551.7c-3.2 1.2-5 3.7-5 7 0 3.7 2.2 6.2 7.3 7.9 1.8.6 3.3 1.8 3.5 2.7.5 2.4-4.2 3.3-7.2 1.4-1.7-1.2-2.6-1.3-3.5-.4-2.8 2.8 0 5.5 6.6 6.1 7 .6 11-3.2 10.1-9.5-.2-1.7-1.8-3.2-5.3-5-5.4-2.7-6.7-5.5-2.5-5.3 1.4.1 3.2.4 4 .8.9.4 2-.1 2.7-1.4 1.1-1.6 1-2.1-.6-3-2.5-1.3-8.2-2-10.1-1.3zM579.7 552c-1.6.5-3.5 1.4-4.3 2.1-1.1.9-1.4.8-1.4-.5 0-1.1-.9-1.6-2.7-1.6h-2.8v35h6.1l-.1-5.8c-.1-3.1 0-6 .2-6.4.2-.4 1.5-.1 2.9.7 1.5.7 4.4 1.2 6.5 1 7.4-.8 11.4-5.4 11.2-13-.2-5.4-2.7-9.3-7-11.1-3.6-1.6-4.6-1.6-8.6-.4zm8.7 8.5c3.2 8.5-6.2 14.9-12 8.2-3.6-4.2-1.3-11.1 4-11.9 2.7-.5 7.2 1.6 8 3.7zM608.6 552c-6.5 2-10.3 8.9-8.5 15.4 1.2 4.5 3.7 7.1 8 8.5 7.4 2.4 14.4-.8 16.9-7.7 3.6-10.2-5.8-19.4-16.4-16.2zm9 7.1c4.2 4.7-.1 13.3-6 12.2-6.6-1.3-7.6-11.9-1.3-14.2 2.8-1 5.1-.4 7.3 2zM642.3 552.1c-1.8.5-3.3 1.4-3.3 1.9 0 .6-.4 1-1 1-.5 0-1-.7-1-1.5 0-1.8-5-2.1-5.1-.3-.1 1.6 0 16.3 0 20 .1 2.4.5 2.8 3.1 2.8h3v-6.6c0-8.8 1.9-12.4 6.7-12.4 3.1 0 3.7 1.5 3.8 10.5l.2 8h5.8l.1-9.5c.1-9.1 0-9.6-2.7-12.2-2.9-3-4.4-3.2-9.6-1.7zM666.5 552c-3 1.2-4.6 3.5-4.7 6.9-.1 3.9 1.5 5.8 6.3 7.2 4 1.3 5.8 3.7 3.7 5.1-1.9 1.2-4.2 1-6.4-.6-2.1-1.6-4.4-.5-4.4 2.1 0 1.9 5.7 4.2 9.5 3.8 6.3-.5 9.5-4.5 8.1-10.1-.5-1.9-2-3.1-5.6-4.6-5-2.1-6.4-4.3-3.4-5.5.8-.3 2.7 0 4.1.6 2.7 1.2 4.2.3 4.3-2.5 0-2.2-7.9-3.9-11.5-2.4zM732 552.5c-5 2.2-7.4 6-7.4 11.6 0 7.9 6.4 13.4 14.4 12.5 2.9-.3 7-2.3 7-3.4-.1-2-2.7-4-4.1-3.1-2.2 1.4-7.5 1.1-8.8-.5-1-1.2.3-1.9 7.1-4.1 4.6-1.5 8.6-3 9-3.4 1.1-1-1.9-6.9-4.5-8.6-3.6-2.3-8.7-2.7-12.7-1zm7.5 4.5c1.5.6 2.5 1.5 2.3 2.1-.3 1-9.1 4.9-11 4.9-1.2 0 1.2-5.2 3-6.6 2.1-1.6 2.4-1.7 5.7-.4zM685.1 564l.1 12h2.9c2.3 0 2.9-.5 3-2.3.1-2.5.1-17.3 0-20-.1-1.2-.9-1.7-3.1-1.7h-3.1l.2 12zM696 552.8c0 .7 10.8 20.5 12.3 22.6 1.3 1.7 1.9.9 7.5-10.2 3.4-6.6 6.2-12.3 6.2-12.6 0-.3-1.5-.5-3.3-.4-3.1.1-3.5.5-6.2 7l-2.9 6.9-3.5-7c-3.3-6.7-3.6-7-6.8-6.9-1.8.1-3.3.3-3.3.6zM761.5 556c-1 1.1-1.5 2.6-1.2 3.5.5 1 0 1.5-1.4 1.5-3 0-7.5 5-8.3 9.3-1.8 9.7 9.4 18.2 18.3 14 3-1.5 7.5-8.8 6.4-10.6-.3-.5.3-.7 1.3-.3 1.3.4 2.4-.1 3.3-1.6 1.5-2.4 1-3-12-13.9-4.5-3.8-4.7-3.8-6.4-1.9zm6.4 10.6c3.7 3.1 4.1 7 1.1 10.2-3.5 3.7-9.1 2.8-11.5-1.9-1.8-3.4-.8-6.9 2.7-9.3 3.1-2.2 4.1-2 7.7 1zM267.9 556.6c-8.4 3.5-9.8 16.2-2.4 21.7 6 4.3 15.8 2.6 19.5-3.5 4-6.6 1.3-15.5-5.5-18.4-4.3-1.7-7-1.7-11.6.2zm11.1 7.1c2.3 3 1.8 7.1-1.4 9.9-4.3 3.8-10.6.6-10.6-5.4 0-7.4 7.5-10.2 12-4.5zM298.4 556.4c-7.5 3.3-10 13.3-4.8 19.5 5.1 6.1 15 6.4 20.4.6 3.5-3.7 4-11.4 1-15.5-3.9-5.4-10.5-7.2-16.6-4.6zm8 4.7c3.5 1.6 5.2 6.1 3.7 9.8-2.3 5.3-9.4 5.9-11.8 1.1-2.3-4.6-1.2-8.3 3.2-10.8 2.5-1.4 2-1.4 4.9-.1zM340.3 556.4c-2.2 1-3.3 2.3-3.8 4.5-.9 4.2.8 6.7 6.2 9.3 4.8 2.4 5.5 3.6 2.9 5.3-1.2.7-2.5.5-4.7-.8-3-1.7-3.2-1.7-4.5 0-1.1 1.5-1 2.1.7 3.8 3 3.1 11.2 2.6 14.6-.8 2.4-2.3 2.6-3 1.7-6.4-.8-3.2-1.5-4-5.4-5.4-4.7-1.7-6.4-4.4-3.5-5.5.9-.4 2.7-.2 3.9.4 1.7.7 2.7.7 3.5-.1 2-2 1.1-3.6-2.6-4.6-4.7-1.3-5.1-1.3-9 .3zM393.8 559.6c-5.1 2.7-7.4 10.9-4.6 16.8 2 4.5 11.2 7.8 15.9 5.8 2.6-1.1.6-5.5-2.2-4.7-1.1.4-3.3.1-4.9-.5-3.4-1.4-4.8-4-2.2-4.1.9 0 2.7-.2 3.9-.5 2-.3 8.8-1.1 12.1-1.3 3.1-.2.1-8.6-4.2-11.5-3.1-2-10.2-2-13.8 0zm10.6 4.5c3.4 2.7 2.6 3.5-4.6 4.4-4.8.5-5.8.4-5.8-.9 0-1.6 4.6-5.6 6.5-5.6.7 0 2.4 1 3.9 2.1zM420.9 563.4s-1.3 5-2.8 11.1c-2.6 10.4-2.6 11.1-1 11.9 2.4 1.2 4.9.1 4.9-2.1 0-3.5 2.2-9.5 4.1-11.4 1-1 3.2-1.9 4.8-1.9 2.1 0 3.2-.6 3.6-2.1 1-3.1-1.1-3.9-5.8-2.3-3.7 1.3-3.9 1.3-3.4-.5.3-1.4-.2-2-1.9-2.4-1.3-.2-2.4-.4-2.5-.3zM461.7 575.3c-8 4.6-8.1 16.1-.1 21.4 3.6 2.3 11.4 2.2 14.7-.3 5.1-3.7 6.5-11.8 3.1-17.1-3.6-5.6-11.7-7.4-17.7-4zm9.7 3.8c5.2 2.4 5.3 10.1.1 13.5-2.1 1.4-3 1.4-5.4.4-5.7-2.3-6.2-9.7-.9-13.4 2.7-1.9 3-1.9 6.2-.5zM489.6 580.9c-2.6 8.7-4.7 20.4-3.8 21.3 1.8 1.8 4.6.4 5.3-2.7.4-1.7 1-4.2 1.3-5.7.8-3.7 4.4-6.8 7.8-6.8 3 0 4.4-1.9 3.5-4.4-.6-1.5-2.8-1.2-7.9.9-1.3.5-1.5.2-1.1-1.3.6-2.5-4.4-3.8-5.1-1.3zM737.6 584.1c-7.8 6.1-7 17.5 1.6 21.8 6.5 3.2 12.9 1.3 16.9-5.2 2.4-3.9 2.1-6.9-.7-7.3-1.5-.3-2.4.5-3.5 2.9-1.2 2.7-5.7 6.3-6.6 5.3-.2-.2 1-3.9 2.7-8.2 1.6-4.3 3-8.4 3-9 0-3.1-9.6-3.3-13.4-.3zm5.5 9.2c-2 5.9-3.3 6.8-4.9 3.2-1.9-4.1 1.9-10.1 5.5-8.8.8.3.6 1.9-.6 5.6zM507.8 595.2c-2.8 11.6-2.6 12.7 1.3 12.8 1.2 0 2.1-1.9 3.3-6.7 1.9-7.8 3.8-10.3 7.8-10.3s4.4 1.9 2.3 11.1c-1 4.3-1.6 8.1-1.4 8.3.2.2 1.5.6 2.8.8 2.1.3 2.5-.3 4.1-6.3 2-7.9 2.5-8.8 5.6-9.9 5.6-2.2 6.8.9 4.3 11.1-1.9 7.6-1.6 8.8 2.3 8.9 1.2 0 2-1.7 3.2-6.8 2.8-12.4 2.8-12.9.4-15.7-2.5-2.8-8.9-3.8-11-1.7-.9.9-1.7.6-3.4-1.5-1.8-2.2-3-2.7-6.5-2.7-2.4 0-5.3.4-6.3.9-1.6.7-1.8.5-1.3-.7.5-1.4-1.6-2.7-4.4-2.8-.3 0-1.7 5.1-3.1 11.2zM559 595.7c-5.1 1-9 6.9-9 13.9 0 2.8.8 4.4 3.5 7.1 3.4 3.4 3.8 3.5 9 3.1 3.2-.3 5.3-.1 5.2.5-.1.5 1 1.3 2.5 1.7 2.6.8 2.8.5 3.7-2.8 2-7.4 4.1-16.7 4.1-18.3 0-2.2-3.9-3.2-4.7-1.3-.4 1.2-1.1 1-3.3-1.1-2.8-2.7-6.5-3.6-11-2.8zm7.5 5.9c5.2 2.4 5.5 8.4.7 12.7-1.5 1.4-2.9 1.7-5.1 1.2-8.5-1.8-7.9-13.9.7-15.4.2-.1 1.9.6 3.7 1.5zM354.2 617.9l.3 21.6 2.4.3c1.3.2 2.7-.2 3.2-.9.6-1 1.1-1 2.3.1.9.7 3.6 1.3 6.1 1.3 8 0 12.6-5.1 12-13.6-.5-8.8-9-13.9-16.7-10-1.5.7-2.9 1.3-3.3 1.3-.3 0-.5-4.9-.5-10.8v-10.8h-6l.2 21.5zm18.2 4.6c4.3 4 3.3 9.5-2.4 12.5-2.3 1.2-7.7-.5-9-3-4.3-8 4.8-15.6 11.4-9.5zM705.5 597.9c-2.7 1.6-4.3 3.3-10.8 10.8-1.7 2-1.6 2.2 12.5 13.8 7.9 6.5 15.1 12.5 16 13.3 1.6 1.3 2 1.2 3.7-.9l2-2.4-5.4-5-5.5-5 2-2.3c1.9-2.4 2.1-2.4 10.6-1.2l8.6 1.1 2.4-2.8 2.4-2.8-9.4-1.4-9.4-1.4-.5-3.8c-1.3-9.4-11.5-14.8-19.2-10zm11.9 9c.8 1.5 1.1 3.3.7 4.2-.8 2.1-4.7 6.9-5.6 6.9-.3 0-2.9-1.9-5.6-4.2l-4.9-4.1 2.7-3c1.6-1.6 3.7-3.3 4.8-3.7 2.7-1 6.4.8 7.9 3.9zM307 601.2c-.1 3.6-.1 35.1-.1 37 .1 1.6 1.4 1.8 13.1 1.8h13v-5.9l-10.2-.3-10.2-.3-.1-17v-17l-2.7-.3c-2.3-.3-2.8.1-2.8 2zM586.5 603.2c-1.3 4.5-4.7 20.9-4.3 21.3.2.2 1.5.6 2.8.7 2 .3 2.4-.3 3.7-5.7.7-3.2 2-6.9 2.8-8.1 1.9-2.9 6.2-3.7 8.5-1.4 1.7 1.7 1.7 2.1-.1 9.1-2.4 9.4-2.4 9.7.9 10.1 2.6.3 2.7.1 4.8-8.7 2.2-9.5 1.9-12.6-1.4-15.1-2.2-1.7-9.4-1.8-11-.2-.9.9-1.2.8-1.2-.4 0-2.5-4.7-3.9-5.5-1.6zM341.3 605.7c-2 .7-1.6 5 .5 5.5 2.7.7 4.2-.2 4.2-2.7 0-1.8-2.1-4-3.3-3.4-.1 0-.8.3-1.4.6zM462.3 605.7c-1.7.6-1.6 3.8.1 5.2 1.6 1.4 4.2.5 5-1.6 1.1-2.9-1.9-5-5.1-3.6zM618.4 611.6c-8.5 4.2-8.6 17.7 0 21.8 3.5 1.6 8.2 2.1 11 1 2.7-1 0-4.4-3.5-4.4-4.3 0-6.5-1.5-7.8-5.1-1.3-3.8.4-7.3 4.5-9.1 2.1-1 3.2-.8 5.9.7 2.8 1.5 3.7 1.6 5 .5 2-1.6.4-3.7-4.2-5.7-4.1-1.7-7-1.6-10.9.3zM396.6 617.5c-2 1.3-3.7 2.2-3.7 2-.1-.3-.2-1.1-.3-1.8 0-.6-1.2-1.2-2.6-1.2h-2.5v23l2.8.3c2.7.3 2.7.3 2.7-5.7 0-7.6 1.4-10.8 5.7-12.3 2.4-.9 3.3-1.8 3.3-3.4 0-3.4-1.4-3.6-5.4-.9zM413.6 616.5c-2 .7-3.9 1.5-4 1.7-2.7 3.5-3.6 6-3.6 9.6 0 8.1 4.4 12.7 12.1 12.5 2.1 0 4.7-.7 5.6-1.4 1.3-1.1 1.7-1.1 2-.2.3.7 1.8 1.3 3.4 1.3h3l-.3-11.7-.3-11.8H429c-1.5 0-2.4.5-2.2 1.2.3 1.7-.8 1.6-2.7-.1-2.4-2.2-6.2-2.6-10.5-1.1zm10.7 6.2c1 1 1.7 3.1 1.7 5.4 0 3-.6 4.2-2.9 5.8-3.6 2.6-5.2 2.6-8.4.1-3.1-2.4-3.8-5.5-2-9.2 2.4-4.9 7.4-5.8 11.6-2.1zM484.5 615.7c-6.7 1.4-10.1 4.7-11.1 10.7-.6 4.4 1.7 9.8 5.4 12.2 2.9 1.9 9.3 2.2 13.5.5 2.4-.9 2.6-1.4 1.7-3.1-1.2-2.3-1.8-2.4-5.4-1-2.6 1-7.6-.4-7.6-2.1 0-.8 8.6-4.3 13.5-5.5 3.5-.9 4-2.7 1.9-6.3-2.4-4.1-7.5-6.4-11.9-5.4zm4.6 5.3c1 .6 1.9 1.5 1.9 2 0 1-5.4 3.6-9.7 4.6-3.1.8-3.1-1.9.2-5.1 2.6-2.7 4.6-3.1 7.6-1.5zM508 616.2c-5.4 2-6.7 8.3-2.4 11.7 1.5 1.2 3.2 2.1 3.8 2.1.6 0 2.2.7 3.4 1.6 1.8 1.3 2.1 1.9 1.1 3-1.5 1.8-4.9 1.8-7.5 0-1.8-1.3-2.1-1.2-3.2.5-1 1.6-.8 2.1 1.1 3.4 5.3 3.5 14.1 1.8 15.3-2.9 1.2-4.9.1-7-5-9.6-2.7-1.4-5.1-3.1-5.4-3.7-.6-1.9 2.7-2.8 5.8-1.6 2.2.8 2.9.7 3.8-.8 1-1.5.8-2-.8-2.9-2.7-1.5-7.2-1.8-10-.8zM340 628.2V640H345.7l-.1-11.7-.1-11.7-2.8-.1-2.7-.2v11.9zM440.4 617.4c-.3.7-.3 5.9-.2 11.7l.3 10.4 2.8.3 2.7.3v-6.9c0-6.6.2-7.2 3.1-9.6 1.7-1.4 3.7-2.6 4.5-2.6.8 0 1.4-1 1.4-2.5 0-3.3-2.9-3.3-6.8 0-2.8 2.3-3 2.3-2.5.5.3-1.1.1-2-.3-2.1-.5 0-1.7-.2-2.7-.4-1-.2-2 .2-2.3.9zM462.3 616.7c-1 .3-1.3 3.7-1.3 11.9V640h6v-11.8c0-10.5-.2-11.8-1.7-11.9-1 0-2.4.2-3 .4zM643.1 617.3c-6 3-8.4 12.3-4.7 17.9 3.7 5.7 17.2 7.7 16.4 2.5-.2-1.8-.9-2.1-3.5-1.9-3.1.3-8.3-2.1-8.3-3.8 0-.8 3.1-1.4 13.1-2.5 5.4-.6 5.6-.7 5.4-3.4-.3-3.6-2.9-7.5-6.1-8.9-3.3-1.5-9.3-1.5-12.3.1zm10.7 4.9c2.4 2 1.2 3.5-3.4 4.2-8 1.1-8.5.9-7.3-1.8 1.9-4.2 7-5.3 10.7-2.4zM396.9 631.2c-.1.2-.2 8.4-.3 18.3-.2 19.9-.7 21.8-6 24-2.7 1.1-3.3 1.9-3.1 4.2.1 2.5.5 2.8 3.1 2.5 3.4-.4 7-2.7 9.8-6.6 1.9-2.5 2.1-4.4 2.4-22.7l.3-19.9h-3c-1.7 0-3.2.1-3.2.2zM573.7 637.6c-1.5 1.6-.7 5.3 1.4 5.9 3 1 5.8-1.9 4.3-4.3-1.2-1.8-4.5-2.8-5.7-1.6zM622 643.3c0 5-.2 5.5-2 5-1.6-.4-2 0-2 2.1 0 1.9.5 2.6 2 2.6 2.1 0 2.4 1.5 2.1 13.7l-.1 5.3H628.7v-7.3c.1-12.3 0-11.7 3.3-11.7 2.5 0 3-.4 3-2.4 0-1.9-.5-2.4-2.5-2.4-3.4 0-3.8-.5-3.9-5.5-.1-4-.3-4.2-3.3-4.5l-3.3-.3v5.4zM416.2 649c-4.1 2.5-6.1 7-5.7 12.8.6 8.4 9.3 13.5 16.6 9.8 2.1-1.1 3.5-1.3 3.7-.6.2.5 1.7 1 3.3 1h3l-.3-11.8-.3-11.7-2.7-.3c-2.2-.3-2.8.1-2.8 1.5 0 1.2-.3 1.4-.8.6-.9-1.5-5.6-3.3-8.5-3.3-1.2 0-3.7.9-5.5 2zm13.5 6.3c.9 1.5 1.3 5.9.7 8-.7 2.2-5.3 4.5-7.9 3.9-7.2-1.5-7.6-12.2-.5-14.4 1.8-.6 6.8 1 7.7 2.5zM476.3 648.5c-4.6 2-6.7 5.8-6.7 12.2-.1 4.9.2 5.8 3.2 8.4 4.2 3.8 7.3 4.4 12.7 2.6 2.5-.8 4.5-1 4.5-.6 0 .5 1.4.9 3 .9h3.1l-.3-11.8c-.3-11.5-.3-11.7-2.7-12-1.3-.2-2.7.1-3.1.7-.5.8-1.5.7-3.6-.4-3.5-1.8-5.9-1.8-10.1 0zm12.8 7.6c1 1.9.7 6.8-.5 8.7-.3.6-1.9 1.5-3.5 2-2.3.8-3.5.6-6-.9-2.6-1.6-3.1-2.5-3.1-5.7 0-3.8 1.7-6.4 5-7.4 2.3-.7 6.9 1.2 8.1 3.3zM507.5 648.1c-7.1 4-5.5 11.9 3 14.6 2 .6 3 1.6 3 2.9 0 2.5-3.6 3-6.9.9-2.3-1.6-2.5-1.5-3.6.5-1.3 2.5-1.4 2.4 2.4 4.4 3.7 1.9 10.3 1.4 12.6-1 1-1.1 2.1-3.3 2.3-5.1.6-3.5-1.9-6.5-6.3-7.8-3.9-1.2-5.2-2.5-3.9-4.1 1.4-1.7 4.1-1.8 5.8-.2 1 1.1 1.5.9 2.7-.7 1.2-1.6 1.2-2.1.1-3.2-1.8-1.8-8.8-2.5-11.2-1.2zM534 648.2c-5.1 1.3-9 6.2-9 11.5 0 7.6 3.1 11.5 10.3 12.8 4.1.8 10.7-1 10.7-3 0-2.3-2.6-3.6-5.1-2.6-2.8 1-6.6-.2-8.5-2.7-4.4-5.8 3-13.7 9.5-10.2 1.4.7 2.3.5 3.6-1 1.6-1.7 1.6-1.9-.7-3.4-3.1-2-6.6-2.5-10.8-1.4zM562.3 648.6c-1.8.9-3.3 2.2-3.4 2.8 0 .6-.4.1-.9-1.2-.6-1.5-1.8-2.2-3.5-2.2H552v24h3c3 0 3 0 3-5.8 0-7 1.6-10.3 5.8-12.1 1.9-.9 3.2-2.2 3.2-3.3 0-1 0-2.1.1-2.5.1-1.4-1.6-1.3-4.8.3zM598.7 648c-1.6.5-3.5 1.4-4.3 2.1-1.1.9-1.4.8-1.4-.5 0-1.1-.9-1.6-3-1.6h-3v35h3c3.2 0 3.2 0 3.2-7.7V670l3 1.6c3.6 1.9 10.2 1.2 13.5-1.4 7-5.4 5.6-18.5-2.2-21.8-3.8-1.6-4.8-1.6-8.8-.4zm6.7 6.6c6 5.9-.3 15.4-8 12.1-4.2-1.8-5.1-8.2-1.7-11.9 2-2.2 7.6-2.4 9.7-.2zM442 649.1c0 2.1 12.2 23.9 13.1 23.4.5-.3 3.5-5.8 6.8-12.1 6-11.8 6.1-13 1.1-12.2-1.6.2-2.9 2-4.8 6.5-1.5 3.5-3 6.3-3.3 6.3-.4 0-1.9-2.9-3.4-6.5-2.7-6.2-3-6.5-6.2-6.5-1.8 0-3.3.5-3.3 1.1zM573 660v12h6v-24h-6v12zM539.7 676.9c-.2.3-.3 10-.3 21.6l.1 21 2.8.3 2.7.3v-43.9h-2.5c-1.4 0-2.7.3-2.8.7zM415 699.7v20.5l9.8-.4c11.9-.4 16.4-2.3 20.6-9.1 2.3-3.7 2.8-5.8 2.8-10.5 0-14-8.9-21.3-25.9-21.1l-7.3.1v20.5zm19.6-13.1c4.7 2.2 7.8 7.5 7.5 13.1-.3 9.5-5.7 14.3-16.2 14.3H421v-29h5.1c2.8 0 6.6.7 8.5 1.6zM460.8 696.9c-6.8 3.5-9.1 11.4-5.2 17.9 2.9 5.1 11.8 7.2 17.3 4.3 1.8-1 1.9-1.5 1-3.2-.8-1.5-1.7-1.9-3.2-1.5-4.8 1.4-5.7 1.4-7.8-.3-2.2-1.7-2.1-1.8 6.8-5 7.8-2.8 9-3.5 8.6-5.2-.6-2.3-5.9-7.9-7.6-8-.7-.1-2.5-.2-4-.3-1.5-.2-4.2.4-5.9 1.3zm9.3 5.1c1.3 1 2.2 1.9 1.9 2-.3 0-3 .9-6 2s-5.8 2-6.3 2c-1.5 0 .4-4.4 2.7-6.2 2.8-2.3 4.9-2.2 7.7.2zM517.6 696.1c-8.4 2.4-11.7 13-6.2 20.2 3 3.9 11.9 5.2 16.9 2.6 1.4-.8 1.5-1.4.7-2.9-1.2-2.3-1.9-2.4-5.4-1-2.6.9-7.6-.4-7.6-2 0-.4 2-1.5 4.5-2.4 2.5-.9 6.5-2.3 9-3.2 2.4-.9 4.3-1.9 4.2-2.3-3.7-8.3-8.7-11.1-16.1-9zm7.5 5.8l2.3 1.8-5.8 2.2c-3.1 1.1-6.1 2.1-6.7 2.1-1.6 0 .1-4.3 2.5-6.2 2.7-2.3 4.8-2.2 7.7.1zM560.4 696.1c-4.9 1.4-7.7 5.1-8.2 11.2-.4 4.6-.1 5.7 2.2 8.4 4.1 4.9 9.9 6.1 16.5 3.4 7.4-3.1 9-14.4 2.8-20.5-2.5-2.5-8.8-3.7-13.3-2.5zm7 5c2.6 1.2 3.6 2.9 4.2 6.9.3 2.9-1.1 5.1-4.4 6.9-7.3 3.9-13.1-7.7-6.4-12.9 2.9-2.3 3.3-2.4 6.6-.9zM595.3 696.2c-1.8.4-3.5 1.3-3.8 1.8-.9 1.5-2.5 1.2-2.5-.5 0-.9-.9-1.5-2.5-1.5H584v35H589.7l-.1-6.5c-.1-3.6-.1-6.5 0-6.5s1.7.6 3.5 1.4c5.7 2.3 12.4.5 15.5-4.2.9-1.3 1.6-4.6 1.7-7.2.1-9-6.4-14.2-15-11.8zm7.5 7.3c2.8 3.3 2.3 7.1-1.3 10.2-3.3 2.9-5.7 2.9-9.1 0-4.4-3.8-3.3-10.7 2.1-12.7 3-1.2 5.8-.3 8.3 2.5zM624.1 696.2c-8.1 2.2-11.6 11.2-7.1 18.5 2.2 3.7 4.2 4.9 9.1 5.6 3.6.4 9.9-1.5 9.9-3-.1-2.3-1.8-3.4-4.6-2.7-3.6 1-6.5.6-8.2-1.1-1.2-1 0-1.7 7-4 4.5-1.5 8.7-3.1 9.2-3.5 1.2-1.1-1.4-6-4.4-8.1-3.2-2.3-6.6-2.8-10.9-1.7zm7.4 5.4c2 2 1.4 2.5-4.8 4.8-5.4 2-6.2 1.8-5.3-1.7 1-4.1 7.2-6 10.1-3.1zM655.1 697.7c-3.7 2.2-4.2 2.3-3.9.7.2-1.4-.3-1.8-2.2-1.9h-2.5l-.3 11.7-.3 11.8h2.9c2.7 0 2.8-.2 2.9-4.8.1-8.1.2-8.8 2.1-11 1-1.1 3-2.4 4.4-2.7 1.9-.5 2.6-1.3 2.6-3.1 0-3.5-.9-3.6-5.7-.7zM481 697.2c0 .9 9.4 18.8 11.5 22.1 1.1 1.5 2 .2 7.4-10.2 3.3-6.6 6.1-12.2 6.1-12.4 0-.3-1.4-.4-3.1-.3-2.7.2-3.4.9-5.8 6.4-1.5 3.4-3 6.4-3.2 6.7-.3.3-2-2.6-3.7-6.3-2.9-6.2-3.5-6.8-6.2-6.8-1.7 0-3 .4-3 .8zM509.9 725.2c0 .7-.1 10.5-.2 21.8v20.5l3.1.3c1.8.2 3.2-.1 3.2-.6s2-.2 4.4.6c3.8 1.4 4.7 1.4 8.2.1 2.3-.9 4.8-2.9 6.2-4.9 2-2.9 2.3-4.3 1.8-8.5-.4-4.1-1.2-5.6-4-8.2-3.1-2.8-4.2-3.2-7.8-2.9-2.4.1-5.3.8-6.6 1.5l-2.2 1.2V724h-3c-1.7 0-3 .5-3.1 1.2zm18.3 25.7c2.8 2.7 3 6.6.3 9.5-4.7 5-12.5 2-12.5-4.8 0-6.6 7.4-9.4 12.2-4.7zM557 746v22h6v-44h-6v22zM429 747v21H435.7l-.1-11.5c-.1-6.3.1-11.5.4-11.5.3.1 3.3 4.1 6.8 9 3.5 5 6.6 9 7 9 .4-.1 3.6-4.3 7.2-9.5l6.5-9.4.3 12 .3 12 3.2-.3 3.2-.3v-20.8c0-11.4-.3-20.7-.7-20.7-.4 0-5.1 6.1-10.4 13.5-5.3 7.4-9.7 13.5-9.8 13.5 0 0-4.4-6.1-9.6-13.5-5.2-7.4-9.8-13.5-10.2-13.5-.5 0-.8 9.4-.8 21zM543.2 734.2c-1.6 1.6-1.5 2.3.4 4.2 2.1 2.2 4.1 2 5.4-.5 2-3.7-2.8-6.7-5.8-3.7zM484.9 744.5c-8.5 3.7-9.6 17.4-1.7 22.4 5.9 3.7 15.3 1.6 18.8-4.1 2.4-3.9 2.5-7.6.6-12.3-2.7-6.3-10.6-9-17.7-6zm10.7 6.6c4.2 4.7-.1 13.3-6 12.2-6.6-1.3-7.6-11.9-1.3-14.2 2.8-1 5.1-.4 7.3 2zM576.5 744.6c-4.6 2.4-6.9 6.1-6.9 11.5-.2 9.1 7.5 14.5 16.8 11.9 4.8-1.3 5.4-2.3 3.3-5.2-.9-1.1-1.8-1.4-2.8-.7-2.1 1.3-7.5 1.1-8.7-.4-.8-1 .8-1.9 7.4-4.2 4.7-1.6 8.7-3.2 8.9-3.5.9-1.4-2.8-7.2-5.7-9-3.9-2.3-8.1-2.5-12.3-.4zm10 5.5c1.3 1.3-.2 2.4-5.9 4.3-2.7.9-5.1 1.6-5.2 1.6-.2 0 .2-1.3.7-2.9 1.6-4.4 7.1-6 10.4-3zM542.9 746.5v9c0 13.3-.2 12.5 3.1 12.5h3v-24h-3c-2.5 0-3 .4-3.1 2.5zM506 785.9c0 8.2.4 16.1.9 17.4 4.2 11.1 21.7 12.5 28 2.4 1.9-3.1 2.1-4.9 2.1-19.1V771h-6v14.1c0 8.6-.4 14.9-1.1 16.2-3.1 5.9-11.5 6.5-15.9 1.1-1.1-1.2-1.5-5.3-1.5-16.3l-.2-14.6-3.1-.3-3.2-.3v15zM547 791.4V812h2.9c1.9 0 3-.6 3.3-1.8.2-.9.3-10 .3-20.2l-.1-18.5-3.2-.3-3.2-.3v20.5z"/></svg>